<?xml version="1.0" encoding="utf-8" standalone="yes"?>
<!DOCTYPE svg PUBLIC "-//W3C//DTD SVG 1.1//EN" "http://www.w3.org/Graphics/SVG/1.1/DTD/svg11.dtd">
<svg width="482" height="383" viewBox="0 0 482 383" style="fill:none;stroke:none;fill-rule:evenodd;clip-rule:evenodd;stroke-linecap:round;stroke-linejoin:round;stroke-miterlimit:1.5;" version="1.1" xmlns="http://www.w3.org/2000/svg" xmlns:xlink="http://www.w3.org/1999/xlink"><style id="fontImports">@import url("https://fonts.googleapis.com/css2?family=Roboto:wght@400;700&amp;display=block");</style><g id="items" style="isolation: isolate"><g id="blend" style="mix-blend-mode:screen"><g id="g-root-5.cu_sy_909u8h6501zj-fill" data-item-order="999959236" data-item-id="5.cu_sy_909u8h6501zj" data-item-class="Part Indexed Fill Stroke" data-item-index="5" data-renderer-id="0" transform="translate(3, 296.770263671875)"><g id="5.cu_sy_909u8h6501zj-fill" stroke="none" fill="#4f4a20"><g><path d="M 127.865599 20.2322C 127.072599 29.7108 98.925799 34.4164 70.438399 39.6509C 49.240499 43.546 29.886599 45.288 22.274199 47.0136C 16.031099 48.4288 9.999999 52.8286 10.565499 61.629C 10.909699 66.9868 14.232099 71.4046 22.274199 72.035C 31.965999 72.7948 48.632699 69.9303 75.757899 65.242C 124.527599 56.8124 141.431599 48.3751 141.431599 31.5084C 141.431599 20.2322 126.082599 12.281 119.205599 10C 123.373599 11.6633 128.339599 14.562 127.865599 20.2322Z"></path></g></g></g><g id="g-root-5.cu_1_sy_4kgc416502rs-fill" data-item-order="999959238" data-item-id="5.cu_1_sy_4kgc416502rs" data-item-class="Part Indexed Fill Stroke" data-item-index="5" data-renderer-id="0" transform="translate(6.224365234375, 290.4970703125)"><g id="5.cu_1_sy_4kgc416502rs-fill" stroke="none" fill="#4f4a20"><g><path d="M 38.0076 27.1771C 16.9757 24.0392 10.9029 18.5537 10 17.5313C 11.8743 19.5171 14.7922 20.8771 19.0033 21.2053C 28.7014 21.9611 45.379 19.1113 72.522 14.4469C 81.0593 12.9798 88.6207 11.5124 95.2864 10C 102.5445 12.184 110.341 13.5695 117.352 16.811C 120.339 18.2371 124.813 20.893 124.686 26.0148C 124.538 31.9893 114.66 35.7537 102.0009 38.9452C 101.6757 38.8312 100.3044 38.2844 99.9973 38.1713C 92.3051 35.2781 65.1564 31.2276 38.0076 27.1771Z"></path></g></g></g><g id="g-root-4.cu_sy_909u8h6501zh-fill" data-item-order="999959240" data-item-id="4.cu_sy_909u8h6501zh" data-item-class="Part Indexed Fill Stroke" data-item-index="4" data-renderer-id="0" transform="translate(3, 239.74609375)"><g id="4.cu_sy_909u8h6501zh-fill" stroke="none" fill="#404b29"><g><path d="M 127.865599 20.2322C 127.072599 29.7108 98.925799 34.4164 70.438399 39.6509C 49.240499 43.546 29.886599 45.288 22.274199 47.0136C 16.031099 48.4288 9.999999 52.8286 10.565499 61.629C 10.909699 66.9868 14.232099 71.4046 22.274199 72.035C 31.965999 72.7948 48.632699 69.9303 75.757899 65.242C 124.527599 56.8124 141.431599 48.3751 141.431599 31.5084C 141.431599 20.2322 126.082599 12.281 119.205599 10C 123.373599 11.6633 128.339599 14.562 127.865599 20.2322Z"></path></g></g></g><g id="g-root-4.cu_1_sy_909u8h6501zi-fill" data-item-order="999959242" data-item-id="4.cu_1_sy_909u8h6501zi" data-item-class="Part Indexed Fill Stroke" data-item-index="4" data-renderer-id="0" transform="translate(6.224365234375, 233.4736328125)"><g id="4.cu_1_sy_909u8h6501zi-fill" stroke="none" fill="#404b29"><g><path d="M 38.0076 27.1771C 16.9757 24.0392 10.9029 18.5537 10 17.5313C 11.8743 19.5171 14.7922 20.8771 19.0033 21.2053C 28.7014 21.9611 45.379 19.1113 72.522 14.4469C 81.0593 12.9798 88.6207 11.5124 95.2864 10C 102.5445 12.184 110.341 13.5695 117.352 16.811C 120.339 18.2371 124.813 20.893 124.686 26.0148C 124.538 31.9893 114.66 35.7537 102.0009 38.9452C 101.6757 38.8312 100.3044 38.2844 99.9973 38.1713C 92.3051 35.2781 65.1564 31.2276 38.0076 27.1771Z"></path></g></g></g><g id="g-root-3.cu_sy_hvwuhd65016r-fill" data-item-order="999959244" data-item-id="3.cu_sy_hvwuhd65016r" data-item-class="Part Indexed Fill Stroke" data-item-index="3" data-renderer-id="0" transform="translate(3, 182.720703125)"><g id="3.cu_sy_hvwuhd65016r-fill" stroke="none" fill="#2b503e"><g><path d="M 127.865599 20.2322C 127.072599 29.7108 98.925799 34.4164 70.438399 39.6509C 49.240499 43.546 29.886599 45.288 22.274199 47.0136C 16.031099 48.4288 9.999999 52.8286 10.565499 61.629C 10.909699 66.9868 14.232099 71.4046 22.274199 72.035C 31.965999 72.7948 48.632699 69.9303 75.757899 65.242C 124.527599 56.8124 141.431599 48.3751 141.431599 31.5084C 141.431599 20.2322 126.082599 12.281 119.205599 10C 123.373599 11.6633 128.339599 14.562 127.865599 20.2322Z"></path></g></g></g><g id="g-root-3.cu_1_sy_909u8h6501zg-fill" data-item-order="999959246" data-item-id="3.cu_1_sy_909u8h6501zg" data-item-class="Part Indexed Fill Stroke" data-item-index="3" data-renderer-id="0" transform="translate(6.224365234375, 176.4482421875)"><g id="3.cu_1_sy_909u8h6501zg-fill" stroke="none" fill="#2b503e"><g><path d="M 38.0076 27.1771C 16.9757 24.0392 10.9029 18.5537 10 17.5313C 11.8743 19.5171 14.7922 20.8771 19.0033 21.2053C 28.7014 21.9611 45.379 19.1113 72.522 14.4469C 81.0593 12.9798 88.6207 11.5124 95.2864 10C 102.5445 12.184 110.341 13.5695 117.352 16.811C 120.339 18.2371 124.813 20.893 124.686 26.0148C 124.538 31.9893 114.66 35.7537 102.0009 38.9452C 101.6757 38.8312 100.3044 38.2844 99.9973 38.1713C 92.3051 35.2781 65.1564 31.2276 38.0076 27.1771Z"></path></g></g></g><g id="g-root-2.cu_sy_hvwuhd65016p-fill" data-item-order="999959248" data-item-id="2.cu_sy_hvwuhd65016p" data-item-class="Part Indexed Fill Stroke" data-item-index="2" data-renderer-id="0" transform="translate(3, 125.6962890625)"><g id="2.cu_sy_hvwuhd65016p-fill" stroke="none" fill="#224754"><g><path d="M 127.865599 20.2322C 127.072599 29.7108 98.925799 34.4164 70.438399 39.6509C 49.240499 43.546 29.886599 45.288 22.274199 47.0136C 16.031099 48.4288 9.999999 52.8286 10.565499 61.629C 10.909699 66.9868 14.232099 71.4046 22.274199 72.035C 31.965999 72.7948 48.632699 69.9303 75.757899 65.242C 124.527599 56.8124 141.431599 48.3751 141.431599 31.5084C 141.431599 20.2322 126.082599 12.281 119.205599 10C 123.373599 11.6633 128.339599 14.562 127.865599 20.2322Z"></path></g></g></g><g id="g-root-2.cu_1_sy_hvwuhd65016q-fill" data-item-order="999959250" data-item-id="2.cu_1_sy_hvwuhd65016q" data-item-class="Part Indexed Fill Stroke" data-item-index="2" data-renderer-id="0" transform="translate(6.224365234375, 119.4228515625)"><g id="2.cu_1_sy_hvwuhd65016q-fill" stroke="none" fill="#224754"><g><path d="M 38.0076 27.1771C 16.9757 24.0392 10.9029 18.5537 10 17.5313C 11.8743 19.5171 14.7922 20.8771 19.0033 21.2053C 28.7014 21.9611 45.379 19.1113 72.522 14.4469C 81.0593 12.9798 88.6207 11.5124 95.2864 10C 102.5445 12.184 110.341 13.5695 117.352 16.811C 120.339 18.2371 124.813 20.893 124.686 26.0148C 124.538 31.9893 114.66 35.7537 102.0009 38.9452C 101.6757 38.8312 100.3044 38.2844 99.9973 38.1713C 92.3051 35.2781 65.1564 31.2276 38.0076 27.1771Z"></path></g></g></g><g id="g-root-1.cu_sy_mb3vip6503k6-fill" data-item-order="999959252" data-item-id="1.cu_sy_mb3vip6503k6" data-item-class="Part Indexed Indexed_1 Fill Stroke" data-item-index="1" data-renderer-id="0" transform="translate(3, 68.671875)"><g id="1.cu_sy_mb3vip6503k6-fill" stroke="none" fill="#293f64"><g><path d="M 127.865599 20.2322C 127.072599 29.7108 98.925799 34.4164 70.438399 39.6509C 49.240499 43.546 29.886599 45.288 22.274199 47.0136C 16.031099 48.4288 9.999999 52.8286 10.565499 61.629C 10.909699 66.9868 14.232099 71.4046 22.274199 72.035C 31.965999 72.7948 48.632699 69.9303 75.757899 65.242C 124.527599 56.8124 141.431599 48.3751 141.431599 31.5084C 141.431599 20.2322 126.082599 12.281 119.205599 10C 123.373599 11.6633 128.339599 14.562 127.865599 20.2322Z"></path></g></g></g><g id="g-root-1.cu_1_sy_mb3vip6503k7-fill" data-item-order="999959254" data-item-id="1.cu_1_sy_mb3vip6503k7" data-item-class="Part Indexed Indexed_1 Fill Stroke" data-item-index="1" data-renderer-id="0" transform="translate(3.5655517578125, 49.37811279296875)"><g id="1.cu_1_sy_mb3vip6503k7-fill" stroke="none" fill="#293f64"><g><path d="M 21.6823 10.759802C 31.374 10.000002 48.067 12.416802 75.1922 17.105202C 90.003 19.665202 106.1882 23.441602 120.011 29.832302C 122.998 31.258302 127.472 33.914302 127.345 39.036102C 127.196 45.010602 117.319 48.775002 104.6598 51.966502C 104.3346 51.852502 102.9633 51.305702 102.6561 51.192602C 78.8756 42.248102 51.5585 39.866802 26.2368 35.826002C 24.7636 36.385802 21.9403 36.588802 20.221 36.385802C 15.9301 35.288202 10 31.995102 10 23.070502C 10 18.441102 13.6401 11.390202 21.6823 10.759802Z"></path></g></g></g><g id="g-root-1.Ellipse_sy_hvwuhd65016o-fill" data-item-order="999959256" data-item-id="1.Ellipse_sy_hvwuhd65016o" data-item-class="Part Indexed Indexed_1 Fill Stroke" data-item-index="1" data-renderer-id="0" transform="translate(3.5270843505859375, 50.178955078125)"><g id="1.Ellipse_sy_hvwuhd65016o-fill" stroke="none" fill="#293f64"><g><path d="M 10.001843 22.846066C 9.999999 29.94019 15.500659 35.692136 22.286706 35.692136C 29.072752 35.692136 34.573413 29.94019 34.571569 22.846066C 34.573413 15.751942 29.072752 9.999996 22.286706 9.999996C 15.500659 9.999996 9.999999 15.751942 10.001843 22.846066"></path></g></g></g><g id="g-root-tx_dataproc_1qaqcsx6500zy-fill" data-item-order="1000000000" data-item-id="tx_dataproc_1qaqcsx6500zy" data-item-class="Label Stroke Title" data-item-index="none" data-renderer-id="0" transform="translate(183.52859497070312, 2)"><g id="tx_dataproc_1qaqcsx6500zy-fill" stroke="none" fill="#A3A3A3"><g><text style="font: 20px Roboto, sans-serif; white-space: pre;"><tspan x="12.88" y="34" dominant-baseline="ideographic">Data Processing Workflow</tspan></text></g></g></g><g id="g-root-edit_1usfa6p6549oo-fill" data-item-order="1000000000" data-item-id="edit_1usfa6p6549oo" data-item-class="Icon Stroke Indexed Indexed_1" data-item-index="1" data-renderer-id="0" transform="translate(171.52859497070312, 68)"></g><g id="g-root-tx_waveform_1qaqcsx6500zx-fill" data-item-order="1000000000" data-item-id="tx_waveform_1qaqcsx6500zx" data-item-class="Label Stroke Indexed Indexed_1" data-item-index="1" data-renderer-id="0" transform="translate(219.52859497070312, 74)"><g id="tx_waveform_1qaqcsx6500zx-fill" stroke="none" fill="#A3A3A3"><g><text style="font: 20px Roboto, sans-serif; white-space: pre;"><tspan x="12" y="34" dominant-baseline="ideographic">Waveform Calibration</tspan></text></g></g></g><g id="g-root-1_74qc165493j-fill" data-item-order="1000000000" data-item-id="1_74qc165493j" data-item-class="Icon Stroke Indexed" data-item-index="2" data-renderer-id="0" transform="translate(171.52859497070312, 128)"></g><g id="g-root-tx_lowlevel_4mtzl6503k4-fill" data-item-order="1000000000" data-item-id="tx_lowlevel_4mtzl6503k4" data-item-class="Label Stroke Indexed" data-item-index="2" data-renderer-id="0" transform="translate(219.52859497070312, 134)"><g id="tx_lowlevel_4mtzl6503k4-fill" stroke="none" fill="#A3A3A3"><g><text style="font: 20px Roboto, sans-serif; white-space: pre;"><tspan x="12" y="34" dominant-baseline="ideographic">Low-Level Calibration</tspan></text></g></g></g><g id="g-root-1_74qc165493i-fill" data-item-order="1000000000" data-item-id="1_74qc165493i" data-item-class="Icon Stroke Indexed" data-item-index="3" data-renderer-id="0" transform="translate(171.52859497070312, 188)"></g><g id="g-root-tx_highleve_4mtzl6503k3-fill" data-item-order="1000000000" data-item-id="tx_highleve_4mtzl6503k3" data-item-class="Label Stroke Indexed" data-item-index="3" data-renderer-id="0" transform="translate(219.52859497070312, 194)"><g id="tx_highleve_4mtzl6503k3-fill" stroke="none" fill="#A3A3A3"><g><text style="font: 20px Roboto, sans-serif; white-space: pre;"><tspan x="12" y="34" dominant-baseline="ideographic">High-Level Calibration</tspan></text></g></g></g><g id="g-root-flip_92rqkx6548at-fill" data-item-order="1000000000" data-item-id="flip_92rqkx6548at" data-item-class="Icon Stroke Indexed" data-item-index="4" data-renderer-id="0" transform="translate(171.52859497070312, 248)"></g><g id="g-root-tx_modifyno_4kgc416502ru-fill" data-item-order="1000000000" data-item-id="tx_modifyno_4kgc416502ru" data-item-class="Label Stroke Indexed" data-item-index="4" data-renderer-id="0" transform="translate(219.52859497070312, 254)"><g id="tx_modifyno_4kgc416502ru-fill" stroke="none" fill="#A3A3A3"><g><text style="font: 20px Roboto, sans-serif; white-space: pre;"><tspan x="12" y="34" dominant-baseline="ideographic">Modify Notebook</tspan></text></g></g></g><g id="g-root-meit_92rqkx6548as-fill" data-item-order="1000000000" data-item-id="meit_92rqkx6548as" data-item-class="Icon Stroke Indexed" data-item-index="5" data-renderer-id="0" transform="translate(171.52859497070312, 308)"></g><g id="g-root-tx_muoneven_4kgc416502rt-fill" data-item-order="1000000000" data-item-id="tx_muoneven_4kgc416502rt" data-item-class="Label Stroke Indexed" data-item-index="5" data-renderer-id="0" transform="translate(219.52859497070312, 314)"><g id="tx_muoneven_4kgc416502rt-fill" stroke="none" fill="#A3A3A3"><g><text style="font: 20px Roboto, sans-serif; white-space: pre;"><tspan x="12" y="34" dominant-baseline="ideographic">Muon Event Identification</tspan></text></g></g></g><g id="g-root-5.cu_sy_909u8h6501zj-stroke" data-item-order="999959236" data-item-id="5.cu_sy_909u8h6501zj" data-item-class="Part Indexed Fill Stroke" data-item-index="5" data-renderer-id="0" transform="translate(3, 296.770263671875)"><g id="5.cu_sy_909u8h6501zj-stroke" fill="none" stroke-linecap="round" stroke-linejoin="round" stroke-miterlimit="4" stroke="#FFE60A" stroke-width="2"><g><path d="M 70.438399 39.6509C 98.925799 34.4164 127.072699 29.7108 127.865499 20.2322C 128.339799 14.562 123.373999 11.6633 119.205999 10C 126.082599 12.281 141.431299 20.2322 141.431299 31.5084C 141.431299 48.3752 124.527999 56.8124 75.757899 65.242C 48.632699 69.9303 31.965999 72.7948 22.274199 72.035C 14.232099 71.4046 10.909699 66.9868 10.565499 61.629C 9.999999 52.8286 16.031099 48.4288 22.274199 47.0136C 29.886599 45.288 49.240499 43.546 70.438399 39.6509Z"></path></g></g></g><g id="g-root-5.cu_1_sy_4kgc416502rs-stroke" data-item-order="999959238" data-item-id="5.cu_1_sy_4kgc416502rs" data-item-class="Part Indexed Fill Stroke" data-item-index="5" data-renderer-id="0" transform="translate(6.224365234375, 290.4970703125)"><g id="5.cu_1_sy_4kgc416502rs-stroke" fill="none" stroke-linecap="round" stroke-linejoin="round" stroke-miterlimit="4" stroke="#FFE60A" stroke-width="2"><g><path d="M 38.0076 27.1771C 16.9757 24.0392 10.9029 18.5537 10 17.5313C 11.8743 19.5171 14.7922 20.8771 19.0033 21.2053C 28.7014 21.9611 45.379 19.1113 72.522 14.4469C 81.0593 12.9798 88.6207 11.5124 95.2864 10C 102.5445 12.184 110.3408 13.5695 117.3519 16.811C 120.3393 18.2371 124.8131 20.893 124.6859 26.0148C 124.5376 31.9893 114.6599 35.7537 102.0009 38.9452C 101.6757 38.8312 100.3044 38.2844 99.9973 38.1713C 92.3051 35.2781 65.1564 31.2276 38.0076 27.1771ZM 117.3519 16.811L 117.5995 16.9255"></path></g></g></g><g id="g-root-4.cu_sy_909u8h6501zh-stroke" data-item-order="999959240" data-item-id="4.cu_sy_909u8h6501zh" data-item-class="Part Indexed Fill Stroke" data-item-index="4" data-renderer-id="0" transform="translate(3, 239.74609375)"><g id="4.cu_sy_909u8h6501zh-stroke" fill="none" stroke-linecap="round" stroke-linejoin="round" stroke-miterlimit="4" stroke="#A8DD38" stroke-width="2"><g><path d="M 70.438399 39.6509C 98.925799 34.4164 127.072699 29.7108 127.865499 20.2322C 128.339799 14.562 123.373999 11.6633 119.205999 10C 126.082599 12.281 141.431299 20.2322 141.431299 31.5084C 141.431299 48.3752 124.527999 56.8124 75.757899 65.242C 48.632699 69.9303 31.965999 72.7948 22.274199 72.035C 14.232099 71.4046 10.909699 66.9868 10.565499 61.629C 9.999999 52.8286 16.031099 48.4288 22.274199 47.0136C 29.886599 45.288 49.240499 43.546 70.438399 39.6509Z"></path></g></g></g><g id="g-root-4.cu_1_sy_909u8h6501zi-stroke" data-item-order="999959242" data-item-id="4.cu_1_sy_909u8h6501zi" data-item-class="Part Indexed Fill Stroke" data-item-index="4" data-renderer-id="0" transform="translate(6.224365234375, 233.4736328125)"><g id="4.cu_1_sy_909u8h6501zi-stroke" fill="none" stroke-linecap="round" stroke-linejoin="round" stroke-miterlimit="4" stroke="#A8DD38" stroke-width="2"><g><path d="M 38.0076 27.1771C 16.9757 24.0392 10.9029 18.5537 10 17.5313C 11.8743 19.5171 14.7922 20.8771 19.0033 21.2053C 28.7014 21.9611 45.379 19.1113 72.522 14.4469C 81.0593 12.9798 88.6207 11.5124 95.2864 10C 102.5445 12.184 110.3408 13.5695 117.3519 16.811C 120.3393 18.2371 124.8131 20.893 124.6859 26.0148C 124.5376 31.9893 114.6599 35.7537 102.0009 38.9452C 101.6757 38.8312 100.3044 38.2844 99.9973 38.1713C 92.3051 35.2781 65.1564 31.2276 38.0076 27.1771ZM 117.3519 16.811L 117.5995 16.9255"></path></g></g></g><g id="g-root-3.cu_sy_hvwuhd65016r-stroke" data-item-order="999959244" data-item-id="3.cu_sy_hvwuhd65016r" data-item-class="Part Indexed Fill Stroke" data-item-index="3" data-renderer-id="0" transform="translate(3, 182.720703125)"><g id="3.cu_sy_hvwuhd65016r-stroke" fill="none" stroke-linecap="round" stroke-linejoin="round" stroke-miterlimit="4" stroke="#44E095" stroke-width="2"><g><path d="M 70.438399 39.6509C 98.925799 34.4164 127.072699 29.7108 127.865499 20.2322C 128.339799 14.562 123.373999 11.6633 119.205999 10C 126.082599 12.281 141.431299 20.2322 141.431299 31.5084C 141.431299 48.3752 124.527999 56.8124 75.757899 65.242C 48.632699 69.9303 31.965999 72.7948 22.274199 72.035C 14.232099 71.4046 10.909699 66.9868 10.565499 61.629C 9.999999 52.8286 16.031099 48.4288 22.274199 47.0136C 29.886599 45.288 49.240499 43.546 70.438399 39.6509Z"></path></g></g></g><g id="g-root-3.cu_1_sy_909u8h6501zg-stroke" data-item-order="999959246" data-item-id="3.cu_1_sy_909u8h6501zg" data-item-class="Part Indexed Fill Stroke" data-item-index="3" data-renderer-id="0" transform="translate(6.224365234375, 176.4482421875)"><g id="3.cu_1_sy_909u8h6501zg-stroke" fill="none" stroke-linecap="round" stroke-linejoin="round" stroke-miterlimit="4" stroke="#44E095" stroke-width="2"><g><path d="M 38.0076 27.1771C 16.9757 24.0392 10.9029 18.5537 10 17.5313C 11.8743 19.5171 14.7922 20.8771 19.0033 21.2053C 28.7014 21.9611 45.379 19.1113 72.522 14.4469C 81.0593 12.9798 88.6207 11.5124 95.2864 10C 102.5445 12.184 110.3408 13.5695 117.3519 16.811C 120.3393 18.2371 124.8131 20.893 124.6859 26.0148C 124.5376 31.9893 114.6599 35.7537 102.0009 38.9452C 101.6757 38.8312 100.3044 38.2844 99.9973 38.1713C 92.3051 35.2781 65.1564 31.2276 38.0076 27.1771ZM 117.3519 16.811L 117.5995 16.9255"></path></g></g></g><g id="g-root-2.cu_sy_hvwuhd65016p-stroke" data-item-order="999959248" data-item-id="2.cu_sy_hvwuhd65016p" data-item-class="Part Indexed Fill Stroke" data-item-index="2" data-renderer-id="0" transform="translate(3, 125.6962890625)"><g id="2.cu_sy_hvwuhd65016p-stroke" fill="none" stroke-linecap="round" stroke-linejoin="round" stroke-miterlimit="4" stroke="#1AC6FF" stroke-width="2"><g><path d="M 70.438399 39.6509C 98.925799 34.4164 127.072699 29.7108 127.865499 20.2322C 128.339799 14.562 123.373999 11.6633 119.205999 10C 126.082599 12.281 141.431299 20.2322 141.431299 31.5084C 141.431299 48.3752 124.527999 56.8124 75.757899 65.242C 48.632699 69.9303 31.965999 72.7948 22.274199 72.035C 14.232099 71.4046 10.909699 66.9868 10.565499 61.629C 9.999999 52.8286 16.031099 48.4288 22.274199 47.0136C 29.886599 45.288 49.240499 43.546 70.438399 39.6509Z"></path></g></g></g><g id="g-root-2.cu_1_sy_hvwuhd65016q-stroke" data-item-order="999959250" data-item-id="2.cu_1_sy_hvwuhd65016q" data-item-class="Part Indexed Fill Stroke" data-item-index="2" data-renderer-id="0" transform="translate(6.224365234375, 119.4228515625)"><g id="2.cu_1_sy_hvwuhd65016q-stroke" fill="none" stroke-linecap="round" stroke-linejoin="round" stroke-miterlimit="4" stroke="#1AC6FF" stroke-width="2"><g><path d="M 38.0076 27.1771C 16.9757 24.0392 10.9029 18.5537 10 17.5313C 11.8743 19.5171 14.7922 20.8771 19.0033 21.2053C 28.7014 21.9611 45.379 19.1113 72.522 14.4469C 81.0593 12.9798 88.6207 11.5124 95.2864 10C 102.5445 12.184 110.3408 13.5695 117.3519 16.811C 120.3393 18.2371 124.8131 20.893 124.6859 26.0148C 124.5376 31.9893 114.6599 35.7537 102.0009 38.9452C 101.6757 38.8312 100.3044 38.2844 99.9973 38.1713C 92.3051 35.2781 65.1564 31.2276 38.0076 27.1771ZM 117.3519 16.811L 117.5995 16.9255"></path></g></g></g><g id="g-root-1.cu_sy_mb3vip6503k6-stroke" data-item-order="999959252" data-item-id="1.cu_sy_mb3vip6503k6" data-item-class="Part Indexed Indexed_1 Fill Stroke" data-item-index="1" data-renderer-id="0" transform="translate(3, 68.671875)"><g id="1.cu_sy_mb3vip6503k6-stroke" fill="none" stroke-linecap="round" stroke-linejoin="round" stroke-miterlimit="4" stroke="#4F92FF" stroke-width="2"><g><path d="M 70.438399 39.6509C 98.925799 34.4164 127.072699 29.7108 127.865499 20.2322C 128.339799 14.562 123.373999 11.6633 119.205999 10C 126.082599 12.281 141.431299 20.2322 141.431299 31.5084C 141.431299 48.3752 124.527999 56.8124 75.757899 65.242C 48.632699 69.9303 31.965999 72.7948 22.274199 72.035C 14.232099 71.4046 10.909699 66.9868 10.565499 61.629C 9.999999 52.8286 16.031099 48.4288 22.274199 47.0136C 29.886599 45.288 49.240499 43.546 70.438399 39.6509Z"></path></g></g></g><g id="g-root-1.cu_1_sy_mb3vip6503k7-stroke" data-item-order="999959254" data-item-id="1.cu_1_sy_mb3vip6503k7" data-item-class="Part Indexed Indexed_1 Fill Stroke" data-item-index="1" data-renderer-id="0" transform="translate(3.5655517578125, 49.37811279296875)"><g id="1.cu_1_sy_mb3vip6503k7-stroke" fill="none" stroke-linecap="round" stroke-linejoin="round" stroke-miterlimit="4" stroke="#4F92FF" stroke-width="2"><g><path d="M 120.0108 29.832302C 122.9982 31.258302 127.4718 33.914302 127.3446 39.036102C 127.1963 45.010602 117.3187 48.775002 104.6598 51.966502C 104.3346 51.852502 102.9633 51.305702 102.6561 51.192602C 78.8756 42.248102 51.5585 39.866802 26.2368 35.826002C 24.7636 36.385802 21.9403 36.588802 20.221 36.385802C 15.9301 35.288202 10 31.995102 10 23.070502C 10 18.441102 13.6401 11.390202 21.6823 10.759802C 31.374 10.000002 48.067 12.416802 75.1922 17.105202C 90.003 19.665102 106.1882 23.441602 120.0108 29.832302ZM 120.0108 29.832302L 120.2583 29.946702"></path></g></g></g><g id="g-root-1.Ellipse_sy_hvwuhd65016o-stroke" data-item-order="999959256" data-item-id="1.Ellipse_sy_hvwuhd65016o" data-item-class="Part Indexed Indexed_1 Fill Stroke" data-item-index="1" data-renderer-id="0" transform="translate(3.5270843505859375, 50.178955078125)"><g id="1.Ellipse_sy_hvwuhd65016o-stroke" fill="none" stroke-linecap="round" stroke-linejoin="round" stroke-miterlimit="4" stroke="#4F92FF" stroke-width="2"><g><path d="M 10.001843 22.846066C 9.999999 29.94019 15.500659 35.692136 22.286706 35.692136C 29.072752 35.692136 34.573413 29.94019 34.571569 22.846066C 34.573413 15.751942 29.072752 9.999996 22.286706 9.999996C 15.500659 9.999996 9.999999 15.751942 10.001843 22.846066"></path></g></g></g><g id="g-root-tx_dataproc_1qaqcsx6500zy-stroke" data-item-order="1000000000" data-item-id="tx_dataproc_1qaqcsx6500zy" data-item-class="Label Stroke Title" data-item-index="none" data-renderer-id="0" transform="translate(183.52859497070312, 2)"></g><g id="g-root-edit_1usfa6p6549oo-stroke" data-item-order="1000000000" data-item-id="edit_1usfa6p6549oo" data-item-class="Icon Stroke Indexed Indexed_1" data-item-index="1" data-renderer-id="0" transform="translate(171.52859497070312, 68)"><g id="edit_1usfa6p6549oo-stroke" fill="none" stroke-linecap="round" stroke-linejoin="round" stroke-miterlimit="4" stroke="#4F92FF" stroke-width="2"><g><path d="M 22.75 45.25L 12.25 45.25C 11.421573 45.25 10.75 44.578426 10.75 43.75L 10.75 12.25C 10.75 11.421573 11.421573 10.75 12.25 10.75L 32.189499 10.75C 32.587292 10.750085 32.968761 10.908176 33.25 11.1895L 38.810501 16.75C 39.091827 17.031239 39.249916 17.412708 39.25 17.810499L 39.25 22.75M 24.25 31C 24.25 32.399498 22.571499 33.530502 20.5 33.530502C 18.428499 33.530502 16.75 32.399498 16.75 31C 16.75 29.6005 18.428499 28.471001 20.5 28.471001C 22.571499 28.471001 24.25 29.601999 24.25 31ZM 24.25 31L 24.25 20.834499C 24.24894 20.298073 24.53442 19.80191 24.998714 19.533239C 25.463011 19.264566 26.03544 19.264284 26.5 19.532499L 29.5 21.25M 44.32 32.68L 32.875 44.125L 27.25 45.25L 28.375 39.625L 39.82 28.18C 40.414822 27.584242 41.222134 27.24947 42.063999 27.24947C 42.905869 27.24947 43.713181 27.584242 44.307999 28.18L 44.32 28.192001C 44.915756 28.786821 45.25053 29.594133 45.25053 30.436001C 45.25053 31.277866 44.915756 32.085182 44.32 32.68Z"></path></g></g></g><g id="g-root-tx_waveform_1qaqcsx6500zx-stroke" data-item-order="1000000000" data-item-id="tx_waveform_1qaqcsx6500zx" data-item-class="Label Stroke Indexed Indexed_1" data-item-index="1" data-renderer-id="0" transform="translate(219.52859497070312, 74)"></g><g id="g-root-1_74qc165493j-stroke" data-item-order="1000000000" data-item-id="1_74qc165493j" data-item-class="Icon Stroke Indexed" data-item-index="2" data-renderer-id="0" transform="translate(171.52859497070312, 128)"><g id="1_74qc165493j-stroke" fill="none" stroke-linecap="round" stroke-linejoin="round" stroke-miterlimit="4" stroke="#1AC6FF" stroke-width="2"><g><path d="M 10.75 35.5C 10.75 40.884777 15.115224 45.25 20.5 45.25C 25.884777 45.25 30.25 40.884777 30.25 35.5C 30.25 30.115225 25.884777 25.750002 20.5 25.750002C 15.115224 25.750002 10.75 30.115225 10.75 35.5M 11.011 33.25C 14.079037 32.269184 17.279028 31.763338 20.5 31.750002C 23.720974 31.763338 26.920965 32.269184 29.989002 33.25M 10.8655 37C 17.615499 37.75 19 37.75 18.25 44.5M 30.134501 37C 23.384501 37.75 22 37.75 22.75 44.5M 20.125 35.5C 20.125 35.707108 20.292892 35.875 20.5 35.875C 20.707108 35.875 20.875 35.707108 20.875 35.5C 20.875 35.292892 20.707108 35.125 20.5 35.125C 20.292892 35.125 20.125 35.292892 20.125 35.5M 31 27.25L 43.75 27.25C 44.578426 27.25 45.25 26.578428 45.25 25.75L 45.25 12.25C 45.25 11.421573 44.578426 10.75 43.75 10.75L 25.75 10.75C 24.921572 10.75 24.25 11.421573 24.25 12.25L 24.25 22M 34.75 27.25L 34.75 31.75M 39.256001 31.75L 33.256001 31.75"></path></g></g></g><g id="g-root-tx_lowlevel_4mtzl6503k4-stroke" data-item-order="1000000000" data-item-id="tx_lowlevel_4mtzl6503k4" data-item-class="Label Stroke Indexed" data-item-index="2" data-renderer-id="0" transform="translate(219.52859497070312, 134)"></g><g id="g-root-1_74qc165493i-stroke" data-item-order="1000000000" data-item-id="1_74qc165493i" data-item-class="Icon Stroke Indexed" data-item-index="3" data-renderer-id="0" transform="translate(171.52859497070312, 188)"><g id="1_74qc165493i-stroke" fill="none" stroke-linecap="round" stroke-linejoin="round" stroke-miterlimit="4" stroke="#44E095" stroke-width="2"><g><path d="M 25.0075 10.9555C 24.777885 10.820578 24.516321 10.749619 24.25 10.75L 12.25 10.75C 11.421573 10.75 10.75 11.421573 10.75 12.25L 10.75 43.75C 10.75 44.578426 11.421573 45.25 12.25 45.25L 24.25 45.25C 25.078428 45.25 25.75 44.578426 25.75 43.75L 25.75 31.75M 24.25 21.25C 24.250002 27.04899 28.951012 31.75 34.75 31.75C 40.548988 31.75 45.25 27.04899 45.25 21.25C 45.25 15.451011 40.548988 10.750001 34.75 10.750001C 28.951012 10.750001 24.250002 15.451011 24.250002 21.25ZM 33.25 17.5L 33.25 24.25C 33.25 25.492641 32.242641 26.5 31 26.5C 29.75736 26.5 28.75 25.492641 28.75 24.25L 28.75 17.5M 40.75 17.5L 40.75 19.75C 40.750004 22.184166 39.960503 24.55267 38.500004 26.500002C 37.039501 24.55267 36.25 22.184166 36.25 19.75L 36.25 17.5M 13.75 40.75L 22.75 40.75M 13.75 37.75L 22.75 37.75M 13.75 34.75L 22.75 34.75M 13.75 31.75L 22.75 31.75M 13.75 28.75L 22.75 28.75M 13.75 25.75L 22.75 25.75"></path></g></g></g><g id="g-root-tx_highleve_4mtzl6503k3-stroke" data-item-order="1000000000" data-item-id="tx_highleve_4mtzl6503k3" data-item-class="Label Stroke Indexed" data-item-index="3" data-renderer-id="0" transform="translate(219.52859497070312, 194)"></g><g id="g-root-flip_92rqkx6548at-stroke" data-item-order="1000000000" data-item-id="flip_92rqkx6548at" data-item-class="Icon Stroke Indexed" data-item-index="4" data-renderer-id="0" transform="translate(171.52859497070312, 248)"><g id="flip_92rqkx6548at-stroke" fill="none" stroke-linecap="round" stroke-linejoin="round" stroke-miterlimit="4" stroke="#A8DD38" stroke-width="2"><g><path d="M 36.25 36.25C 35.421574 36.25 34.75 36.921574 34.75 37.75L 34.75 45.25L 13.75 45.25C 12.921573 45.25 12.25 44.578426 12.25 43.75L 12.25 15.25C 12.25 14.421573 12.921573 13.75 13.75 13.75L 42.25 13.75C 43.078426 13.75 43.75 14.421573 43.75 15.25L 43.75 36.25ZM 43.75 36.25L 34.75 45.25M 16.75 10.75L 16.75 17.5M 24.25 10.75L 24.25 17.5M 31.75 10.75L 31.75 17.5M 39.25 10.75L 39.25 17.5"></path></g></g></g><g id="g-root-tx_modifyno_4kgc416502ru-stroke" data-item-order="1000000000" data-item-id="tx_modifyno_4kgc416502ru" data-item-class="Label Stroke Indexed" data-item-index="4" data-renderer-id="0" transform="translate(219.52859497070312, 254)"></g><g id="g-root-meit_92rqkx6548as-stroke" data-item-order="1000000000" data-item-id="meit_92rqkx6548as" data-item-class="Icon Stroke Indexed" data-item-index="5" data-renderer-id="0" transform="translate(171.52859497070312, 308)"><g id="meit_92rqkx6548as-stroke" fill="none" stroke-linecap="round" stroke-linejoin="round" stroke-miterlimit="4" stroke="#FFE60A" stroke-width="2"><g><path d="M 12.25 10.75L 43.75 10.75C 43.75 10.75 45.25 10.75 45.25 12.25L 45.25 43.75C 45.25 43.75 45.25 45.25 43.75 45.25L 12.25 45.25C 12.25 45.25 10.75 45.25 10.75 43.75L 10.75 12.25C 10.75 12.25 10.75 10.75 12.25 10.75M 20.5 38.5L 35.5 38.5M 17.6875 34.75L 17.6875 21.924999C 17.6875 21.552999 17.987499 21.251499 18.359501 21.251499L 18.359501 21.251499C 18.633459 21.251898 18.880005 21.417843 18.983501 21.671501L 22.362999 29.992001C 22.426996 30.149546 22.579956 30.252705 22.750002 30.253002L 22.75 30.253C 22.920046 30.252705 23.073006 30.149546 23.137001 29.992001L 26.516499 21.671501C 26.619329 21.417301 26.866291 21.251076 27.140501 21.251501L 27.140499 21.251499C 27.511 21.251499 27.8125 21.552999 27.8125 21.924999L 27.8125 34.75M 34.1875 21.25L 34.1875 32.5C 34.1875 33.742641 35.194862 34.75 36.4375 34.75M 31.375 24.625L 37 24.625"></path></g></g></g><g id="g-root-tx_muoneven_4kgc416502rt-stroke" data-item-order="1000000000" data-item-id="tx_muoneven_4kgc416502rt" data-item-class="Label Stroke Indexed" data-item-index="5" data-renderer-id="0" transform="translate(219.52859497070312, 314)"></g></g></g></svg>