<?xml version="1.0" encoding="utf-8" standalone="yes"?>
<!DOCTYPE svg PUBLIC "-//W3C//DTD SVG 1.1//EN" "http://www.w3.org/Graphics/SVG/1.1/DTD/svg11.dtd">
<svg width="1020" height="252" viewBox="0 0 1020 252" style="fill:none;stroke:none;fill-rule:evenodd;clip-rule:evenodd;stroke-linecap:round;stroke-linejoin:round;stroke-miterlimit:1.5;" version="1.1" xmlns="http://www.w3.org/2000/svg" xmlns:xlink="http://www.w3.org/1999/xlink"><style id="fontImports">@import url("https://fonts.googleapis.com/css2?family=Roboto:wght@400;700&amp;display=block");</style><g id="items" style="isolation: isolate"><g id="blend" style="mix-blend-mode:screen"><g id="g-root-2.cu_sy_vccpr5831ers-fill" data-item-order="999979844" data-item-id="2.cu_sy_vccpr5831ers" data-item-class="Part Indexed Fill Stroke ColorStrokeGray" data-item-index="2" data-renderer-id="0" transform="translate(498, 80)"><g id="2.cu_sy_vccpr5831ers-fill" stroke="none" fill="#de9ffb"><g><path d="M 83 70C 87.95 70 92.518 68.402 96.194 65.706C 97.782 66.533 99.586 67 101.5 67C 107.851 67 113 61.851 113 55.5C 113 52.514 111.862 49.794 109.996 47.75C 112.435 45.827 114 42.846 114 39.5C 114 37.08 113.181 34.852 111.806 33.076C 111.934 32.237 112 31.376 112 30.5C 112 21.387 104.837 14 96 14C 95.01 14 94.04 14.093 93.099 14.27C 90.011 11.613 85.95 10 81.5 10C 76.933 10 72.774 11.7 69.658 14.483C 68.661 14.169 67.6 14 66.5 14C 60.701 14 56 18.701 56 24.5C 56 27.072 56.925 29.428 58.46 31.254C 56.915 33.417 56 36.098 56 39C 56 41.302 56.575 43.464 57.584 45.339C 55.359 47.746 54 50.964 54 54.5C 54 61.956 60.044 68 67.5 68C 69.122 68 70.677 67.714 72.118 67.19C 75.327 68.978 79.041 70 83 70ZM 28 40C 28 44.418278 31.581722 48 36 48C 40.418278 48 44 44.418278 44 40C 44 35.581722 40.418278 32 36 32C 31.581722 32 28 35.581722 28 40M 18 40C 18 42.209137 16.209167 44 14 44C 11.790863 44 10 42.209137 10 40C 10 37.790863 11.790863 36 14 36C 16.209167 36 18 37.790863 18 40"></path></g></g></g><g id="g-root-1.cu_sy_vccpr5831err-fill" data-item-order="999979846" data-item-id="1.cu_sy_vccpr5831err" data-item-class="Part Indexed Indexed_1 Fill Stroke ColorStrokeGray" data-item-index="1" data-renderer-id="0" transform="translate(266, 80)"><g id="1.cu_sy_vccpr5831err-fill" stroke="none" fill="#9a66b2"><g><path d="M 20.598 19C 20.565 19 20.533 19 20.5 19C 14.701 19 10 23.701 10 29.5C 10 32.574 11.321 35.339 13.426 37.259C 13.147 38.459 13 39.712 13 41C 13 41.745 13.049 42.478 13.145 43.196C 11.788 45.301 11 47.809 11 50.5C 11 57.956 17.044 64 24.5 64C 24.847 64 25.19 63.987 25.53 63.961C 29.172 67.682 34.308 70 40 70C 45.641 70 50.737 67.723 54.373 64.059C 55.621 64.662 57.021 65 58.5 65C 63.747 65 68 60.747 68 55.5C 68 52.628 66.726 50.055 64.712 48.313C 67.948 45.469 70 41.232 70 36.5C 70 32.425 68.478 28.717 65.99 25.95C 65.996 25.801 66 25.651 66 25.5C 66 20.253 61.747 16 56.5 16C 55.92 16 55.353 16.052 54.802 16.151C 50.681 12.338 45.12 10 39 10C 31.475 10 24.794 13.535 20.598 19ZM 80 40C 80 44.418278 83.581722 48 88 48C 92.418278 48 96 44.418278 96 40C 96 35.581722 92.418278 32 88 32C 83.581722 32 80 35.581722 80 40M 114 40C 114 42.209137 112.209137 44 110 44C 107.790863 44 106 42.209137 106 40C 106 37.790863 107.790863 36 110 36C 112.209137 36 114 37.790863 114 40"></path></g></g></g><g id="g-root-tx_whichmet_1lpwm75832vid-fill" data-item-order="1000000000" data-item-id="tx_whichmet_1lpwm75832vid" data-item-class="Label Stroke Title ColorFillGray ColorStrokeGray" data-item-index="none" data-renderer-id="0" transform="translate(260, 2)"><g id="tx_whichmet_1lpwm75832vid-fill" stroke="none" fill="#8e8e8e"><g><text style="font: bold 20px Roboto, sans-serif; white-space: pre;"><tspan x="17.39" y="34" dominant-baseline="ideographic">Which method to use for muon event </tspan><tspan x="118.36" y="58" dominant-baseline="ideographic">identification?</tspan></text></g></g></g><g id="g-root-face_zjfko1835m9x-fill" data-item-order="1000000000" data-item-id="face_zjfko1835m9x" data-item-class="Icon Stroke Indexed Indexed_0 ColorStrokeGray" data-item-index="0" data-renderer-id="0" transform="translate(398, 74)"></g><g id="g-root-tx_method1f_1q5q4bl832uq4-fill" data-item-order="1000000000" data-item-id="tx_method1f_1q5q4bl832uq4" data-item-class="Label Stroke Indexed Indexed_1 ColorStrokeGray" data-item-index="1" data-renderer-id="0" transform="translate(86, 98)"><g id="tx_method1f_1q5q4bl832uq4-fill" stroke="none" fill="#8e8e8e"><g><text style="font: bold 20px Roboto, sans-serif; white-space: pre;"><tspan x="15.14" y="34" dominant-baseline="ideographic">Method 1 (Faster)</tspan></text></g></g></g><g id="g-root-1_m7z2ap835nuv-fill" data-item-order="1000000000" data-item-id="1_m7z2ap835nuv" data-item-class="Icon Stroke Indexed Indexed_1 InsideFill InsideColorFill" data-item-index="1" data-renderer-id="0" transform="translate(278, 92)"></g><g id="g-root-rota_qnskf5835n2m-fill" data-item-order="1000000000" data-item-id="rota_qnskf5835n2m" data-item-class="Icon Stroke Indexed InsideFill InsideColorFill" data-item-index="2" data-renderer-id="0" transform="translate(554, 92)"></g><g id="g-root-tx_method2r_dbpkyp832sjm-fill" data-item-order="1000000000" data-item-id="tx_method2r_dbpkyp832sjm" data-item-class="Label Stroke Indexed ColorStrokeGray" data-item-index="2" data-renderer-id="0" transform="translate(614, 98)"><g id="tx_method2r_dbpkyp832sjm-fill" stroke="none" fill="#8e8e8e"><g><text style="font: bold 20px Roboto, sans-serif; white-space: pre;"><tspan x="12" y="34" dominant-baseline="ideographic">Method 2 (Recalculate Image Parameters)</tspan></text></g></g></g><g id="g-root-tx_useexist_92ld832u4j-fill" data-item-order="1000000000" data-item-id="tx_useexist_92ld832u4j" data-item-class="Label Stroke Indexed Indexed_1 ColorStrokeGray" data-item-index="1" data-renderer-id="0" transform="translate(2, 134)"><g id="tx_useexist_92ld832u4j-fill" stroke="none" fill="#8e8e8e"><g><text style="font: 20px Roboto, sans-serif; white-space: pre;"><tspan x="22.36" y="34" dominant-baseline="ideographic">Use existing muon .fits file, </tspan><tspan x="35.63" y="58" dominant-baseline="ideographic">extract event_ids, and set </tspan><tspan x="70.13" y="82" dominant-baseline="ideographic">event_type to "muon."</tspan></text></g></g></g><g id="g-root-tx_recalcul_qwj7mp831fk1-fill" data-item-order="1000000000" data-item-id="tx_recalcul_qwj7mp831fk1" data-item-class="Label Stroke Indexed ColorStrokeGray" data-item-index="2" data-renderer-id="0" transform="translate(614, 134)"><g id="tx_recalcul_qwj7mp831fk1-fill" stroke="none" fill="#8e8e8e"><g><text style="font: 20px Roboto, sans-serif; white-space: pre;"><tspan x="12" y="34" dominant-baseline="ideographic">Recalculate image </tspan><tspan x="12" y="58" dominant-baseline="ideographic">parameters during waveform </tspan><tspan x="12" y="82" dominant-baseline="ideographic">calibration and mark events </tspan><tspan x="12" y="106" dominant-baseline="ideographic">as muon candidates.</tspan></text></g></g></g><g id="g-root-2.cu_sy_vccpr5831ers-stroke" data-item-order="999979844" data-item-id="2.cu_sy_vccpr5831ers" data-item-class="Part Indexed Fill Stroke ColorStrokeGray" data-item-index="2" data-renderer-id="0" transform="translate(498, 80)"><g id="2.cu_sy_vccpr5831ers-stroke" fill="none" stroke-linecap="round" stroke-linejoin="round" stroke-miterlimit="4" stroke="#2C2C2C" stroke-width="2"><g><path d="M 83 70C 87.95 70 92.518 68.402 96.194 65.706C 97.782 66.533 99.586 67 101.5 67C 107.851 67 113 61.851 113 55.5C 113 52.514 111.862 49.794 109.996 47.75C 112.435 45.827 114 42.846 114 39.5C 114 37.08 113.181 34.852 111.806 33.076C 111.934 32.237 112 31.376 112 30.5C 112 21.387 104.837 14 96 14C 95.01 14 94.04 14.093 93.099 14.27C 90.011 11.613 85.95 10 81.5 10C 76.933 10 72.774 11.7 69.658 14.483C 68.661 14.169 67.6 14 66.5 14C 60.701 14 56 18.701 56 24.5C 56 27.072 56.925 29.428 58.46 31.254C 56.915 33.417 56 36.098 56 39C 56 41.302 56.575 43.464 57.584 45.339C 55.359 47.746 54 50.964 54 54.5C 54 61.956 60.044 68 67.5 68C 69.122 68 70.677 67.714 72.118 67.19C 75.327 68.978 79.041 70 83 70ZM 28 40C 28 44.418278 31.581722 48 36 48C 40.418278 48 44 44.418278 44 40C 44 35.581722 40.418278 32 36 32C 31.581722 32 28 35.581722 28 40M 18 40C 18 42.209137 16.209167 44 14 44C 11.790863 44 10 42.209137 10 40C 10 37.790863 11.790863 36 14 36C 16.209167 36 18 37.790863 18 40"></path></g></g></g><g id="g-root-1.cu_sy_vccpr5831err-stroke" data-item-order="999979846" data-item-id="1.cu_sy_vccpr5831err" data-item-class="Part Indexed Indexed_1 Fill Stroke ColorStrokeGray" data-item-index="1" data-renderer-id="0" transform="translate(266, 80)"><g id="1.cu_sy_vccpr5831err-stroke" fill="none" stroke-linecap="round" stroke-linejoin="round" stroke-miterlimit="4" stroke="#2C2C2C" stroke-width="2"><g><path d="M 20.598 19C 20.565 19 20.533 19 20.5 19C 14.701 19 10 23.701 10 29.5C 10 32.574 11.321 35.339 13.426 37.259C 13.147 38.459 13 39.712 13 41C 13 41.745 13.049 42.478 13.145 43.196C 11.788 45.301 11 47.809 11 50.5C 11 57.956 17.044 64 24.5 64C 24.847 64 25.19 63.987 25.53 63.961C 29.172 67.682 34.308 70 40 70C 45.641 70 50.737 67.723 54.373 64.059C 55.621 64.662 57.021 65 58.5 65C 63.747 65 68 60.747 68 55.5C 68 52.628 66.726 50.055 64.712 48.313C 67.948 45.469 70 41.232 70 36.5C 70 32.425 68.478 28.717 65.99 25.95C 65.996 25.801 66 25.651 66 25.5C 66 20.253 61.747 16 56.5 16C 55.92 16 55.353 16.052 54.802 16.151C 50.681 12.338 45.12 10 39 10C 31.475 10 24.794 13.535 20.598 19ZM 80 40C 80 44.418278 83.581722 48 88 48C 92.418278 48 96 44.418278 96 40C 96 35.581722 92.418278 32 88 32C 83.581722 32 80 35.581722 80 40M 114 40C 114 42.209137 112.209137 44 110 44C 107.790863 44 106 42.209137 106 40C 106 37.790863 107.790863 36 110 36C 112.209137 36 114 37.790863 114 40"></path></g></g></g><g id="g-root-tx_whichmet_1lpwm75832vid-stroke" data-item-order="1000000000" data-item-id="tx_whichmet_1lpwm75832vid" data-item-class="Label Stroke Title ColorFillGray ColorStrokeGray" data-item-index="none" data-renderer-id="0" transform="translate(260, 2)"></g><g id="g-root-face_zjfko1835m9x-stroke" data-item-order="1000000000" data-item-id="face_zjfko1835m9x" data-item-class="Icon Stroke Indexed Indexed_0 ColorStrokeGray" data-item-index="0" data-renderer-id="0" transform="translate(398, 74)"><g id="face_zjfko1835m9x-stroke" fill="none" stroke-linecap="round" stroke-linejoin="round" stroke-miterlimit="4" stroke="#8e8e8e" stroke-width="2"><g><path d="M 46.599998 39.681999C 43.599998 36.681999 37.599998 35.181999 34.599998 38.181999M 16.9 45.681999C 16.6 44.482002 16.6 43.281998 16.6 41.781998C 16.6 25.581999 29.799999 12.382 46 12.382C 62.199997 12.382 75.399994 25.581999 75.399994 41.781998C 75.399994 52.582001 69.699997 61.882004 61 66.981995M 40.449997 77.800003C 46.449997 75.399994 45.324997 70.111 44.125 65.311005L 53.677002 61.612C 55.891281 60.755096 57.049278 58.316589 56.314003 56.059002L 56.313999 56.058998C 55.93375 54.891376 55.08989 53.931606 53.980541 53.405022C 52.871193 52.878433 51.594067 52.831413 50.449001 53.275002L 32.875 60.084999C 31.375 60.685001 29.575001 59.485001 29.575001 57.985001L 29.458 55.144001C 29.410076 53.986492 28.88414 52.900726 28.005583 52.145561C 27.127028 51.390404 25.974579 51.03352 24.823002 51.160004L 24.823 51.16C 22.704519 51.393932 21.100885 53.183647 21.1 55.315002L 21.1 67.584999C 21.1 75.385002 28.299999 81.084999 35.800003 79.284996C 35.800003 79.284996 38.949997 78.399994 40.449997 77.800003ZM 31.825001 27.681999C 31.20368 27.681999 30.700001 27.178322 30.700001 26.556999C 30.700001 25.93568 31.20368 25.431999 31.825001 25.431999M 31.825001 27.681999C 32.44632 27.681999 32.950001 27.178322 32.950001 26.556999C 32.950001 25.93568 32.44632 25.431999 31.825001 25.431999M 47.800003 27.681999C 47.17868 27.681999 46.675003 27.178322 46.675003 26.556999C 46.675003 25.93568 47.17868 25.431999 47.800003 25.431999M 47.800003 27.681999C 48.421322 27.681999 48.925003 27.178322 48.925003 26.556999C 48.925003 25.93568 48.421322 25.431999 47.800003 25.431999"></path></g></g></g><g id="g-root-tx_method1f_1q5q4bl832uq4-stroke" data-item-order="1000000000" data-item-id="tx_method1f_1q5q4bl832uq4" data-item-class="Label Stroke Indexed Indexed_1 ColorStrokeGray" data-item-index="1" data-renderer-id="0" transform="translate(86, 98)"></g><g id="g-root-1_m7z2ap835nuv-stroke" data-item-order="1000000000" data-item-id="1_m7z2ap835nuv" data-item-class="Icon Stroke Indexed Indexed_1 InsideFill InsideColorFill" data-item-index="1" data-renderer-id="0" transform="translate(278, 92)"><g id="1_m7z2ap835nuv-stroke" fill="none" stroke-linecap="round" stroke-linejoin="round" stroke-miterlimit="4" stroke="#FFFFFF" stroke-width="2"><g><path d="M 11.285714 36.459999C 11.283177 37.126606 11.649254 37.740032 12.237143 38.054283C 12.814941 38.400589 13.536487 38.400589 14.114285 38.054283L 27.177143 29.568571C 27.695047 29.237906 28.008495 28.665894 28.008495 28.051428C 28.008495 27.436966 27.695047 26.864952 27.177143 26.534285L 14.114285 17.997143C 13.536487 17.650841 12.814941 17.650841 12.237143 17.997143C 11.649254 18.311398 11.283177 18.924822 11.285714 19.591429ZM 28 36.459999C 27.997463 37.126606 28.363539 37.740032 28.951427 38.054283C 29.529226 38.400589 30.250772 38.400589 30.828569 38.054283L 43.89143 29.568571C 44.409332 29.237906 44.722778 28.665894 44.722778 28.051428C 44.722778 27.436966 44.409332 26.864952 43.89143 26.534285L 30.828571 17.997143C 30.250772 17.650841 29.529226 17.650841 28.951427 17.997143C 28.379585 18.302567 28.016161 18.891905 28 19.540001Z"></path></g></g></g><g id="g-root-rota_qnskf5835n2m-stroke" data-item-order="1000000000" data-item-id="rota_qnskf5835n2m" data-item-class="Icon Stroke Indexed InsideFill InsideColorFill" data-item-index="2" data-renderer-id="0" transform="translate(554, 92)"><g id="rota_qnskf5835n2m-stroke" fill="none" stroke-linecap="round" stroke-linejoin="round" stroke-miterlimit="4" stroke="#FFFFFF" stroke-width="2"><g><path d="M 20.5 16L 20.5 35.5L 40 35.5M 16 20.5L 35.5 20.5L 35.5 40M 34.412498 16.75L 31.412498 13.75L 34.412498 10.75M 36.568001 14.485C 35.150681 13.996356 33.661686 13.747936 32.162498 13.75L 31.412498 13.75M 39.683498 16.039C 40.465359 16.561846 41.190315 17.165136 41.8465 17.839001M 44.328999 21.4C 44.719707 22.208559 45.028252 23.0543 45.25 23.9245M 21.5875 39.25L 24.587502 42.25L 21.5875 45.25M 19.431999 41.514999C 20.849318 42.003643 22.338314 42.252064 23.8375 42.25L 24.587502 42.25M 16.3165 39.961002C 15.534639 39.438156 14.809686 38.834866 14.1535 38.160999M 11.671 34.599998C 11.280293 33.791439 10.971746 32.945702 10.75 32.0755"></path></g></g></g><g id="g-root-tx_method2r_dbpkyp832sjm-stroke" data-item-order="1000000000" data-item-id="tx_method2r_dbpkyp832sjm" data-item-class="Label Stroke Indexed ColorStrokeGray" data-item-index="2" data-renderer-id="0" transform="translate(614, 98)"></g><g id="g-root-tx_useexist_92ld832u4j-stroke" data-item-order="1000000000" data-item-id="tx_useexist_92ld832u4j" data-item-class="Label Stroke Indexed Indexed_1 ColorStrokeGray" data-item-index="1" data-renderer-id="0" transform="translate(2, 134)"></g><g id="g-root-tx_recalcul_qwj7mp831fk1-stroke" data-item-order="1000000000" data-item-id="tx_recalcul_qwj7mp831fk1" data-item-class="Label Stroke Indexed ColorStrokeGray" data-item-index="2" data-renderer-id="0" transform="translate(614, 134)"></g></g></g></svg>