<?xml version="1.0" encoding="utf-8" standalone="yes"?>
<!DOCTYPE svg PUBLIC "-//W3C//DTD SVG 1.1//EN" "http://www.w3.org/Graphics/SVG/1.1/DTD/svg11.dtd">
<svg width="828" height="648" viewBox="0 0 828 648" style="fill:none;stroke:none;fill-rule:evenodd;clip-rule:evenodd;stroke-linecap:round;stroke-linejoin:round;stroke-miterlimit:1.5;" version="1.1" xmlns="http://www.w3.org/2000/svg" xmlns:xlink="http://www.w3.org/1999/xlink"><style id="fontImports">@import url("https://fonts.googleapis.com/css2?family=Roboto:wght@400;700&amp;display=block");</style><g id="items" style="isolation: isolate"><g id="blend" style="mix-blend-mode:screen"><g id="g-root-0.cu_sy_1hdu1pt8n7nk5-fill" data-item-order="999782634" data-item-id="0.cu_sy_1hdu1pt8n7nk5" data-item-class="Part Indexed_0 Fill Stroke" data-item-index="0" data-renderer-id="0" transform="translate(215.50692749023438, 182.1943359375)"><g id="0.cu_sy_1hdu1pt8n7nk5-fill" stroke="none" fill="#505050"><g><path d="M 154.905101 14.479068C 149.987101 20.189768 144.493101 24.055668 144.493101 24.055668C 144.493101 24.055668 141.205101 21.742168 137.439101 18.050868C 130.245101 20.088968 125.635101 22.482568 124.419101 25.194968C 119.769101 35.564968 156.299101 43.094968 227.249101 45.784968C 268.169101 47.334968 304.789101 51.054968 306.679101 59.344968C 308.679101 68.144968 266.759101 72.505268 221.019101 73.805268C 183.465101 74.872568 155.575101 77.638768 135.534101 81.537168C 129.117101 94.515868 114.493101 104.805668 114.493101 104.805668C 114.493101 104.805668 107.720101 100.040068 101.370201 92.904568C 95.824201 96.382168 92.966101 100.143968 92.299201 104.034968C 89.774301 118.765168 106.249301 136.465168 219.919101 141.805168C 276.499101 144.463168 326.669101 153.225168 329.119101 165.015168C 333.669101 178.225168 294.249101 189.018168 221.019101 191.865168C 161.939101 194.162168 116.605201 199.806168 83.899601 208.325168C 86.824001 213.573168 88.492001 219.629168 88.492001 226.079168L 88.493101 226.079168C 88.493101 252.618168 52.493101 277.806168 52.493101 277.806168C 52.493101 277.806168 31.254701 262.946168 21.403701 244.028168C 19.831601 246.980168 18.766901 250.037168 18.199201 253.195168C 10.000001 298.805168 73.493101 326.805168 214.969101 339.905168C 292.458101 347.080168 366.649101 362.805168 373.749101 393.975168C 379.418101 418.867168 352.733101 438.904168 304.493101 451.755168L 447.593101 451.755168C 463.764101 433.863168 470.496101 413.649168 466.250101 391.945168C 455.479101 336.905168 390.750101 302.477168 216.699101 293.395168C 137.549101 289.265168 84.526201 274.525168 87.609201 255.165168C 90.692201 235.805168 132.689101 223.305168 219.919101 217.785168C 340.979101 210.124168 385.391101 191.865168 381.009101 164.995168C 380.051101 159.116168 376.415101 153.582168 369.363101 148.566168C 361.907101 156.572168 354.493101 161.805168 354.493101 161.805168C 354.493101 161.805168 336.614101 149.183168 328.461101 133.158168C 304.125101 127.851168 270.126101 124.175168 223.969101 122.715168C 152.770101 120.463168 129.679101 113.205168 132.689101 104.024968C 135.679101 95.214968 176.089101 88.744968 225.499101 86.824968C 307.559101 83.634968 345.849101 72.744968 340.979101 59.344968C 340.005101 56.664768 337.560101 54.207868 333.567101 51.975568C 329.042101 56.854668 324.493101 60.055668 324.493101 60.055668C 324.493101 60.055668 314.812101 53.243968 309.650101 44.347768C 291.087101 40.633268 264.053101 38.080468 227.639101 36.704968C 185.999101 35.134968 156.859101 32.014968 158.989101 25.194968C 161.014101 18.731468 192.051101 10.044268 228.342101 10.000168C 200.236101 10.018868 174.018101 11.590668 154.905101 14.479068Z"></path></g></g></g><g id="g-root-1.cu_sy_1hdu1pt8n7nk6-fill" data-item-order="999782636" data-item-id="1.cu_sy_1hdu1pt8n7nk6" data-item-class="Part Indexed Indexed_1 Fill Stroke" data-item-index="1" data-renderer-id="0" transform="translate(222, 362)"><g id="1.cu_sy_1hdu1pt8n7nk6-fill" stroke="none" fill="#293f64"><g><path d="M 10.0011 46.2732C 10.0011 26.2399 26.0941 10 45.9463 10L 46.0537 10C 65.9059 10 81.9989 26.2399 81.9989 46.2732L 82 46.2732C 82 72.8129 46 98 46 98C 46 98 10 72.8129 10 46.2732L 10.0011 46.2732Z"></path></g></g></g><g id="g-root-2.cu_sy_1hdu1pt8n7nk7-fill" data-item-order="999782638" data-item-id="2.cu_sy_1hdu1pt8n7nk7" data-item-class="Part Indexed Fill Stroke" data-item-index="2" data-renderer-id="0" transform="translate(530, 260)"><g id="2.cu_sy_1hdu1pt8n7nk7-fill" stroke="none" fill="#2b503e"><g><path d="M 10.0009 40.5024C 10.0009 23.6562 23.4117 10 39.9552 10L 40.0448 10C 56.5883 10 69.9991 23.6562 69.9991 40.5024L 70 40.5024C 70 62.8199 40 84 40 84C 40 84 10 62.8199 10 40.5024L 10.0009 40.5024Z"></path></g></g></g><g id="g-root-3.cu_sy_1hdu1pt8n7nk8-fill" data-item-order="999782640" data-item-id="3.cu_sy_1hdu1pt8n7nk8" data-item-class="Part Indexed Fill Stroke" data-item-index="3" data-renderer-id="0" transform="translate(296, 218)"><g id="3.cu_sy_1hdu1pt8n7nk8-fill" stroke="none" fill="#224754"><g><path d="M 10.0007 34.3195C 10.0007 20.8881 20.7294 10 33.9642 10L 34.0358 10C 47.2706 10 57.9993 20.8881 57.9993 34.3195L 58 34.3195C 58 52.1132 34 69 34 69C 34 69 10 52.1132 10 34.3195L 10.0007 34.3195Z"></path></g></g></g><g id="g-root-4.cu_sy_1cy0jld8n7och-fill" data-item-order="999782642" data-item-id="4.cu_sy_1cy0jld8n7och" data-item-class="Part Indexed Fill Stroke" data-item-index="4" data-renderer-id="0" transform="translate(512, 188)"><g id="4.cu_sy_1cy0jld8n7och-fill" stroke="none" fill="#404b29"><g><path d="M 10.0005 28.2396C 10.0005 18.1661 18.047 10 27.9731 10L 28.0269 10C 37.953 10 45.9995 18.1661 45.9995 28.2396L 46 28.2396C 46 41.5849 28 54.25 28 54.25C 28 54.25 10 41.5849 10 28.2396L 10.0005 28.2396Z"></path></g></g></g><g id="g-root-5.cu_sy_1cy0jld8n7oci-fill" data-item-order="999782644" data-item-id="5.cu_sy_1cy0jld8n7oci" data-item-class="Part Indexed Fill Stroke" data-item-index="5" data-renderer-id="0" transform="translate(332, 152)"><g id="5.cu_sy_1cy0jld8n7oci-fill" stroke="none" fill="#4f4a20"><g><path d="M 10.0005 28.2396C 10.0005 18.1661 18.047 10 27.9731 10L 28.0269 10C 37.953 10 45.9995 18.1661 45.9995 28.2396L 46 28.2396C 46 41.5849 28 54.25 28 54.25C 28 54.25 10 41.5849 10 28.2396L 10.0005 28.2396Z"></path></g></g></g><g id="g-root-tx_r0vtodl0_mbpzxt8n7oct-fill" data-item-order="1000000000" data-item-id="tx_r0vtodl0_mbpzxt8n7oct" data-item-class="Label Stroke Title" data-item-index="none" data-renderer-id="0" transform="translate(266, 2)"><g id="tx_r0vtodl0_mbpzxt8n7oct-fill" stroke="none" fill="#A3A3A3"><g><text style="font: 20px Roboto, sans-serif; white-space: pre;"><tspan x="14.22" y="34" dominant-baseline="ideographic">R0V to DL0 Data Conversion Process</tspan></text></g></g></g><g id="g-root-tx_optimiza_v7d06p8n7nk4-fill" data-item-order="1000000000" data-item-id="tx_optimiza_v7d06p8n7nk4" data-item-class="Label Stroke Indexed" data-item-index="5" data-renderer-id="0" transform="translate(134, 50)"><g id="tx_optimiza_v7d06p8n7nk4-fill" stroke="none" fill="#FFE60A"><g><text style="font: bold 20px Roboto, sans-serif; white-space: pre;"><tspan x="22.61" y="34" dominant-baseline="ideographic">Optimization and </tspan><tspan x="72.16" y="58" dominant-baseline="ideographic">Refinement</tspan></text></g></g></g><g id="g-root-tx_refinese_zn6ib58n7mrr-fill" data-item-order="1000000000" data-item-id="tx_refinese_zn6ib58n7mrr" data-item-class="Label Stroke Indexed" data-item-index="5" data-renderer-id="0" transform="translate(122, 110)"><g id="tx_refinese_zn6ib58n7mrr-fill" stroke="none" fill="#A3A3A3"><g><text style="font: 20px Roboto, sans-serif; white-space: pre;"><tspan x="46.77" y="34" dominant-baseline="ideographic">Refine selection </tspan><tspan x="16.05" y="58" dominant-baseline="ideographic">criteria and storage </tspan><tspan x="99.78" y="82" dominant-baseline="ideographic">strategies</tspan></text></g></g></g><g id="g-root-tx_testandv_v7d06p8n7nk3-fill" data-item-order="1000000000" data-item-id="tx_testandv_v7d06p8n7nk3" data-item-class="Label Stroke Indexed" data-item-index="4" data-renderer-id="0" transform="translate(578, 110)"><g id="tx_testandv_v7d06p8n7nk3-fill" stroke="none" fill="#A8DD38"><g><text style="font: bold 20px Roboto, sans-serif; white-space: pre;"><tspan x="12" y="34" dominant-baseline="ideographic">Test and Validate</tspan></text></g></g></g><g id="g-root-incr_mdlf758ng3yb-fill" data-item-order="1000000000" data-item-id="incr_mdlf758ng3yb" data-item-class="Icon Stroke Indexed InsideFill InsideColorFill" data-item-index="5" data-renderer-id="0" transform="translate(338, 158)"></g><g id="g-root-tx_runtests_14300fl8n7lzi-fill" data-item-order="1000000000" data-item-id="tx_runtests_14300fl8n7lzi" data-item-class="Label Stroke Indexed" data-item-index="4" data-renderer-id="0" transform="translate(578, 146)"><g id="tx_runtests_14300fl8n7lzi-fill" stroke="none" fill="#A3A3A3"><g><text style="font: 20px Roboto, sans-serif; white-space: pre;"><tspan x="12" y="34" dominant-baseline="ideographic">Run tests to verify </tspan><tspan x="12" y="58" dominant-baseline="ideographic">data conversion </tspan><tspan x="12" y="82" dominant-baseline="ideographic">accuracy</tspan></text></g></g></g><g id="g-root-tx_applydl0_v7d06p8n7nk2-fill" data-item-order="1000000000" data-item-id="tx_applydl0_v7d06p8n7nk2" data-item-class="Label Stroke Indexed" data-item-index="3" data-renderer-id="0" transform="translate(86, 206)"><g id="tx_applydl0_v7d06p8n7nk2-fill" stroke="none" fill="#1AC6FF"><g><text style="font: bold 20px Roboto, sans-serif; white-space: pre;"><tspan x="21.8" y="34" dominant-baseline="ideographic">Apply DL0 Naming </tspan><tspan x="115.14" y="58" dominant-baseline="ideographic">Scheme</tspan></text></g></g></g><g id="g-root-1_mdlf758ng3ya-fill" data-item-order="1000000000" data-item-id="1_mdlf758ng3ya" data-item-class="Icon Stroke Indexed InsideFill InsideColorFill" data-item-index="4" data-renderer-id="0" transform="translate(518, 194)"></g><g id="g-root-doub_qtexbl8ng361-fill" data-item-order="1000000000" data-item-id="doub_qtexbl8ng361" data-item-class="Icon Stroke Indexed InsideFill InsideColorFill" data-item-index="3" data-renderer-id="0" transform="translate(305, 227)"></g><g id="g-root-tx_ensurefi_14300fl8n7lzh-fill" data-item-order="1000000000" data-item-id="tx_ensurefi_14300fl8n7lzh" data-item-class="Label Stroke Indexed" data-item-index="3" data-renderer-id="0" transform="translate(98, 266)"><g id="tx_ensurefi_14300fl8n7lzh-fill" stroke="none" fill="#A3A3A3"><g><text style="font: 20px Roboto, sans-serif; white-space: pre;"><tspan x="18.3" y="34" dominant-baseline="ideographic">Ensure file names </tspan><tspan x="81.44" y="58" dominant-baseline="ideographic">follow DL0 </tspan><tspan x="86.91" y="82" dominant-baseline="ideographic">standards</tspan></text></g></g></g><g id="g-root-tx_addmuone_zn6ib58n7mrt-fill" data-item-order="1000000000" data-item-id="tx_addmuone_zn6ib58n7mrt" data-item-class="Label Stroke Indexed" data-item-index="2" data-renderer-id="0" transform="translate(626, 254)"><g id="tx_addmuone_zn6ib58n7mrt-fill" stroke="none" fill="#44E095"><g><text style="font: bold 20px Roboto, sans-serif; white-space: pre;"><tspan x="12" y="34" dominant-baseline="ideographic">Add Muon Event </tspan><tspan x="12" y="58" dominant-baseline="ideographic">Detection</tspan></text></g></g></g><g id="g-root-fran_qtexbl8ng360-fill" data-item-order="1000000000" data-item-id="fran_qtexbl8ng360" data-item-class="Icon Stroke Indexed InsideFill InsideColorFill" data-item-index="2" data-renderer-id="0" transform="translate(542, 272)"></g><g id="g-root-tx_implemen_14300fl8n7lzg-fill" data-item-order="1000000000" data-item-id="tx_implemen_14300fl8n7lzg" data-item-class="Label Stroke Indexed" data-item-index="2" data-renderer-id="0" transform="translate(626, 314)"><g id="tx_implemen_14300fl8n7lzg-fill" stroke="none" fill="#A3A3A3"><g><text style="font: 20px Roboto, sans-serif; white-space: pre;"><tspan x="12" y="34" dominant-baseline="ideographic">Implement logic to </tspan><tspan x="12" y="58" dominant-baseline="ideographic">detect and label </tspan><tspan x="12" y="82" dominant-baseline="ideographic">muon events</tspan></text></g></g></g><g id="g-root-tx_implemen_zn6ib58n7mrs-fill" data-item-order="1000000000" data-item-id="tx_implemen_zn6ib58n7mrs" data-item-class="Label Stroke Indexed Indexed_1" data-item-index="1" data-renderer-id="0" transform="translate(74, 338)"><g id="tx_implemen_zn6ib58n7mrs-fill" stroke="none" fill="#4F92FF"><g><text style="font: bold 20px Roboto, sans-serif; white-space: pre;"><tspan x="19.39" y="34" dominant-baseline="ideographic">Implement </tspan><tspan x="24.38" y="58" dominant-baseline="ideographic">Waveform </tspan><tspan x="18.03" y="82" dominant-baseline="ideographic">Calibration</tspan></text></g></g></g><g id="g-root-tele_qtexbl8ng35z-fill" data-item-order="1000000000" data-item-id="tele_qtexbl8ng35z" data-item-class="Icon Stroke Indexed Indexed_1 InsideFill InsideColorFill" data-item-index="1" data-renderer-id="0" transform="translate(234, 374)"></g><g id="g-root-tx_adaptexi_1cy0jld8n7ocj-fill" data-item-order="1000000000" data-item-id="tx_adaptexi_1cy0jld8n7ocj" data-item-class="Label Stroke Indexed Indexed_1" data-item-index="1" data-renderer-id="0" transform="translate(2, 422)"><g id="tx_adaptexi_1cy0jld8n7ocj-fill" stroke="none" fill="#A3A3A3"><g><text style="font: 20px Roboto, sans-serif; white-space: pre;"><tspan x="60.77" y="34" dominant-baseline="ideographic">Adapt existing </tspan><tspan x="23.23" y="58" dominant-baseline="ideographic">calibration code to </tspan><tspan x="48.41" y="82" dominant-baseline="ideographic">output DL0 files</tspan></text></g></g></g><g id="g-root-0.cu_sy_1hdu1pt8n7nk5-stroke" data-item-order="999782634" data-item-id="0.cu_sy_1hdu1pt8n7nk5" data-item-class="Part Indexed_0 Fill Stroke" data-item-index="0" data-renderer-id="0" transform="translate(215.50692749023438, 182.1943359375)"><g id="0.cu_sy_1hdu1pt8n7nk5-stroke" fill="none" stroke-linecap="round" stroke-linejoin="round" stroke-miterlimit="4" stroke="#A3A3A3" stroke-width="2"><g><path d="M 304.493073 451.754761C 352.732697 438.904663 379.418488 418.867004 373.748871 393.974976C 366.649384 362.805176 292.458161 347.079712 214.969391 339.905029C 73.493073 326.805664 10.000062 298.805206 18.199158 253.195007C 18.76117 250.069092 19.809876 247.042297 21.355561 244.118713M 447.593354 451.754761C 463.764374 433.863525 470.496552 413.648926 466.249543 391.945007C 455.479584 336.904907 390.749543 302.476807 216.699372 293.394989C 137.549378 289.265015 84.526185 274.524811 87.609162 255.164978C 90.69217 235.805206 132.689362 223.305206 219.919373 217.785004C 340.979401 210.123901 385.391083 191.86499 381.009369 164.994995C 380.048798 159.104797 376.400666 153.560486 369.321991 148.536682M 137.493073 18.035706C 130.267884 20.077194 125.638367 22.475906 124.419159 25.195007C 119.769166 35.565002 156.299378 43.095001 227.24936 45.785004C 268.169373 47.334991 304.789338 51.054993 306.679352 59.345001C 308.679352 68.144989 266.759369 72.505188 221.019379 73.805206C 183.439087 74.873291 155.537079 77.642517 135.493073 81.545196M 154.993073 14.465698C 174.213471 11.568497 200.595368 10 228.849366 10L 228.619355 10C 192.209382 10 161.019166 18.714996 158.989167 25.195007C 156.859162 32.014999 185.99936 35.134994 227.639374 36.705002C 264.090485 38.081802 291.142487 40.638504 309.706208 44.3591M 333.493073 51.934509C 337.530304 54.177704 339.999177 56.6483 340.979401 59.345001C 345.849396 72.744995 307.559357 83.63501 225.49936 86.825012C 176.089386 88.744995 135.679169 95.214996 132.689179 104.024994C 129.679169 113.205017 152.770569 120.463013 223.969391 122.714996C 270.146668 124.175598 304.155549 127.854706 328.493073 133.165588M 101.312073 92.941101C 95.804261 96.408508 92.963868 100.157593 92.299164 104.035004C 89.774384 118.764801 106.249268 136.464905 219.919373 141.805206C 276.499299 144.463379 326.669343 153.225006 329.119355 165.015015C 333.669343 178.225006 294.249299 189.018005 221.019379 191.86499C 161.984284 194.160095 116.674286 199.79718 83.974274 208.305695M 419.828522 418.465454C 418.188569 422.595459 415.848542 426.725464 412.858552 430.735474M 421.748566 394.085449C 422.698517 398.085449 423.028534 402.145386 422.728547 406.175415M 409.258576 371.325439C 412.428559 374.905395 415.098542 378.635437 417.178559 382.405395M 384.518525 352.495422C 389.528534 355.505432 394.158539 358.695435 398.258576 361.975464M 350.13852 337.465454C 356.538544 339.79541 362.668549 342.31543 368.368561 344.975464M 308.728547 325.745422C 316.078522 327.31543 323.288544 329.095459 330.158539 331.04541M 262.658539 318.805786C 270.588532 319.585815 278.478547 320.445435 286.138581 321.615417M 214.238556 314.805817C 214.238556 314.805817 230.49643 315.706818 238.618561 316.085815M 165.588532 310.845428C 173.358552 311.665436 181.428559 312.30542 189.568543 312.735443M 122.978547 303.685425C 129.598542 305.215424 136.628541 306.605438 143.878541 307.795441M 87.238556 293.80542C 92.13855 295.865417 97.538544 297.835419 103.308533 299.645416M 63.858552 280.385437C 66.718537 282.765442 70.13855 285.105438 74.028534 287.335419M 118.768555 215.735413C 113.338532 217.105408 108.108552 218.605408 103.208558 220.185425M 153.658539 208.925415C 147.518555 209.81543 141.468537 210.835449 135.668549 211.965424M 191.89853 205.115417C 185.368561 205.495422 178.838532 206.005432 172.488556 206.635437M 231.218537 203.185425L 211.608552 204.375427M 269.058564 200.835449C 263.028534 201.475433 256.768525 201.995422 250.468537 202.385437M 302.628571 195.695435C 297.548554 196.755432 292.14853 197.735413 286.578522 198.585449M 330.178559 188.31543C 326.448517 189.695435 321.328522 191.015442 316.918549 192.245422M 346.858552 180.425415C 344.718537 181.985413 342.14853 183.535431 339.208527 185.005432M 354.738556 170.81543C 354.248566 172.435425 353.348542 174.06543 352.048554 175.665436M 352.928559 161.245422C 353.768525 162.475433 354.38852 163.735413 354.758576 164.995422C 354.858552 165.325439 354.938569 165.655426 354.998566 165.975433M 323.89853 144.735413C 327.508576 145.885437 330.88852 147.105408 333.938569 148.375427M 299.478547 138.695435C 303.958527 139.545441 308.288544 140.485413 312.348542 141.495422M 270.658539 134.545441C 275.718537 135.06543 280.718537 135.685425 285.508576 136.375427M 239.158539 132.455444C 244.528534 132.625427 249.89853 132.885437 255.128541 133.235413M 206.508545 131.925415C 211.908539 132.115417 217.438569 132.205444 222.948548 132.215424M 175.178559 129.755432C 180.108552 130.285431 185.248566 130.735413 190.458527 131.095428M 148.178559 125.675415C 152.188538 126.495422 156.508545 127.255432 160.998536 127.935425M 127.558533 120.085419C 130.368561 121.115417 133.538544 122.105438 136.958558 123.035431M 114.728547 113.525421C 116.178559 114.675415 117.988556 115.80542 120.118561 116.895447M 110.308533 106.535431C 110.348542 107.705444 110.728547 108.895447 111.458558 110.045441M 142.818543 87.965424C 139.448548 88.765442 136.248536 89.615417 133.338532 90.505432M 165.308533 83.825439C 161.248536 84.395447 157.288544 85.045441 153.538544 85.725433M 191.248566 81.105438C 186.728547 81.435425 182.258545 81.825439 177.938569 82.275421M 219.098542 79.935425C 214.39853 79.995422 209.668549 80.125427 205.048554 80.325439M 246.848542 79.445435C 242.338532 79.645447 237.718537 79.775421 233.098542 79.845428M 272.758576 77.515442C 268.718537 77.955444 264.478547 78.335419 260.168549 78.655426M 294.788544 74.265442C 291.538544 74.905426 288.038544 75.495422 284.378571 76.035431M 311.288544 69.995422C 309.068512 70.765442 306.558564 71.525421 303.808564 72.235413M 321.168549 65.085419C 320.108552 65.935425 318.738556 66.785431 317.098542 67.595428M 323.958527 59.92543C 324.078522 60.785431 323.908539 61.655426 323.448517 62.505432M 309.538544 50.365433C 311.738556 51.06543 313.728547 51.805435 315.448517 52.56543M 293.848542 46.555435C 296.838532 47.115433 299.678559 47.715424 302.288544 48.355438M 274.038544 43.695435C 277.598542 44.085434 281.078522 44.525421 284.378571 44.995422M 251.38855 41.92543C 255.318543 42.125427 259.218537 42.375427 262.988556 42.665436M 227.288544 41.335434L 227.438569 41.335434C 231.448548 41.335434 235.478547 41.385437 239.428559 41.475433M 202.908539 40.725433C 206.838532 40.92543 210.88855 41.075424 214.958527 41.185425M 180.63855 38.955429C 184.068543 39.335434 187.678559 39.685425 191.38855 39.975433M 162.258545 36.185425C 164.918549 36.715424 167.808564 37.215424 170.868561 37.67543M 149.088532 32.685425C 150.788544 33.31543 152.768555 33.92543 154.958558 34.505432M 141.988556 28.745422C 142.63855 29.42543 143.568543 30.095428 144.748536 30.755432M 141.238556 24.665436C 141.13855 24.835434 141.058533 25.005432 140.988556 25.185425C 140.798554 25.685425 140.738556 26.195435 140.828553 26.705429M 157.298554 17.265427C 155.088532 17.805435 153.068543 18.365433 151.278534 18.945435M 172.618561 14.395431C 169.758545 14.81543 167.008545 15.265427 164.458558 15.735428M 191.358552 12.31543C 188.028534 12.585434 184.748566 12.905426 181.628541 13.255432M 401.758576 442.715454C 398.265534 445.827393 394.318635 448.889038 389.993073 451.840088"></path></g></g></g><g id="g-root-1.cu_sy_1hdu1pt8n7nk6-stroke" data-item-order="999782636" data-item-id="1.cu_sy_1hdu1pt8n7nk6" data-item-class="Part Indexed Indexed_1 Fill Stroke" data-item-index="1" data-renderer-id="0" transform="translate(222, 362)"><g id="1.cu_sy_1hdu1pt8n7nk6-stroke" fill="none" stroke-linecap="round" stroke-linejoin="round" stroke-miterlimit="4" stroke="#4F92FF" stroke-width="2"><g><path d="M 10.0011 46.2732C 10.0011 26.2399 26.0941 10 45.9463 10L 46.0537 10C 65.9059 10 81.9989 26.2399 81.9989 46.2732L 82 46.2732C 82 72.8129 46 98 46 98C 46 98 10 72.8129 10 46.2732L 10.0011 46.2732Z"></path></g></g></g><g id="g-root-2.cu_sy_1hdu1pt8n7nk7-stroke" data-item-order="999782638" data-item-id="2.cu_sy_1hdu1pt8n7nk7" data-item-class="Part Indexed Fill Stroke" data-item-index="2" data-renderer-id="0" transform="translate(530, 260)"><g id="2.cu_sy_1hdu1pt8n7nk7-stroke" fill="none" stroke-linecap="round" stroke-linejoin="round" stroke-miterlimit="4" stroke="#44E095" stroke-width="2"><g><path d="M 10.0009 40.5024C 10.0009 23.6562 23.4117 10 39.9552 10L 40.0448 10C 56.5883 10 69.9991 23.6562 69.9991 40.5024L 70 40.5024C 70 62.8199 40 84 40 84C 40 84 10 62.8199 10 40.5024L 10.0009 40.5024Z"></path></g></g></g><g id="g-root-3.cu_sy_1hdu1pt8n7nk8-stroke" data-item-order="999782640" data-item-id="3.cu_sy_1hdu1pt8n7nk8" data-item-class="Part Indexed Fill Stroke" data-item-index="3" data-renderer-id="0" transform="translate(296, 218)"><g id="3.cu_sy_1hdu1pt8n7nk8-stroke" fill="none" stroke-linecap="round" stroke-linejoin="round" stroke-miterlimit="4" stroke="#1AC6FF" stroke-width="2"><g><path d="M 10.0007 34.3195C 10.0007 20.8881 20.7294 10 33.9642 10L 34.0358 10C 47.2706 10 57.9993 20.8881 57.9993 34.3195L 58 34.3195C 58 52.1132 34 69 34 69C 34 69 10 52.1132 10 34.3195L 10.0007 34.3195Z"></path></g></g></g><g id="g-root-4.cu_sy_1cy0jld8n7och-stroke" data-item-order="999782642" data-item-id="4.cu_sy_1cy0jld8n7och" data-item-class="Part Indexed Fill Stroke" data-item-index="4" data-renderer-id="0" transform="translate(512, 188)"><g id="4.cu_sy_1cy0jld8n7och-stroke" fill="none" stroke-linecap="round" stroke-linejoin="round" stroke-miterlimit="4" stroke="#A8DD38" stroke-width="2"><g><path d="M 10.0005 28.2396C 10.0005 18.1661 18.047 10 27.9731 10L 28.0269 10C 37.953 10 45.9995 18.1661 45.9995 28.2396L 46 28.2396C 46 41.5849 28 54.25 28 54.25C 28 54.25 10 41.5849 10 28.2396L 10.0005 28.2396Z"></path></g></g></g><g id="g-root-5.cu_sy_1cy0jld8n7oci-stroke" data-item-order="999782644" data-item-id="5.cu_sy_1cy0jld8n7oci" data-item-class="Part Indexed Fill Stroke" data-item-index="5" data-renderer-id="0" transform="translate(332, 152)"><g id="5.cu_sy_1cy0jld8n7oci-stroke" fill="none" stroke-linecap="round" stroke-linejoin="round" stroke-miterlimit="4" stroke="#FFE60A" stroke-width="2"><g><path d="M 10.0005 28.2396C 10.0005 18.1661 18.047 10 27.9731 10L 28.0269 10C 37.953 10 45.9995 18.1661 45.9995 28.2396L 46 28.2396C 46 41.5849 28 54.25 28 54.25C 28 54.25 10 41.5849 10 28.2396L 10.0005 28.2396Z"></path></g></g></g><g id="g-root-tx_r0vtodl0_mbpzxt8n7oct-stroke" data-item-order="1000000000" data-item-id="tx_r0vtodl0_mbpzxt8n7oct" data-item-class="Label Stroke Title" data-item-index="none" data-renderer-id="0" transform="translate(266, 2)"></g><g id="g-root-tx_optimiza_v7d06p8n7nk4-stroke" data-item-order="1000000000" data-item-id="tx_optimiza_v7d06p8n7nk4" data-item-class="Label Stroke Indexed" data-item-index="5" data-renderer-id="0" transform="translate(134, 50)"></g><g id="g-root-tx_refinese_zn6ib58n7mrr-stroke" data-item-order="1000000000" data-item-id="tx_refinese_zn6ib58n7mrr" data-item-class="Label Stroke Indexed" data-item-index="5" data-renderer-id="0" transform="translate(122, 110)"></g><g id="g-root-tx_testandv_v7d06p8n7nk3-stroke" data-item-order="1000000000" data-item-id="tx_testandv_v7d06p8n7nk3" data-item-class="Label Stroke Indexed" data-item-index="4" data-renderer-id="0" transform="translate(578, 110)"></g><g id="g-root-incr_mdlf758ng3yb-stroke" data-item-order="1000000000" data-item-id="incr_mdlf758ng3yb" data-item-class="Icon Stroke Indexed InsideFill InsideColorFill" data-item-index="5" data-renderer-id="0" transform="translate(338, 158)"><g id="incr_mdlf758ng3yb-stroke" fill="none" stroke-linecap="round" stroke-linejoin="round" stroke-miterlimit="4" stroke="#FFE60A" stroke-width="2"><g><path d="M 10.504 33.25L 33.504 33.25M 14.5 33.25L 14.5 30.75C 14.5 30.473858 14.276142 30.25 14 30.25L 12 30.25C 11.723858 30.25 11.5 30.473858 11.5 30.75L 11.5 33.25M 20.5 33.25L 20.5 26.75C 20.5 26.473858 20.276142 26.25 20 26.25L 18 26.25C 17.723858 26.25 17.5 26.473858 17.5 26.75L 17.5 33.25M 26.5 33.25L 26.5 22.75C 26.5 22.473858 26.276142 22.25 26 22.25L 24 22.25C 23.723858 22.25 23.5 22.473858 23.5 22.75L 23.5 33.25M 32.5 33.25L 32.5 18.75C 32.5 18.473858 32.276142 18.25 32 18.25L 30 18.25C 29.723858 18.25 29.5 18.473858 29.5 18.75L 29.5 33.25M 13.004 23.25L 31.004 11.25M 30.504 15.25L 31.004 11.25L 27.004 10.75"></path></g></g></g><g id="g-root-tx_runtests_14300fl8n7lzi-stroke" data-item-order="1000000000" data-item-id="tx_runtests_14300fl8n7lzi" data-item-class="Label Stroke Indexed" data-item-index="4" data-renderer-id="0" transform="translate(578, 146)"></g><g id="g-root-tx_applydl0_v7d06p8n7nk2-stroke" data-item-order="1000000000" data-item-id="tx_applydl0_v7d06p8n7nk2" data-item-class="Label Stroke Indexed" data-item-index="3" data-renderer-id="0" transform="translate(86, 206)"></g><g id="g-root-1_mdlf758ng3ya-stroke" data-item-order="1000000000" data-item-id="1_mdlf758ng3ya" data-item-class="Icon Stroke Indexed InsideFill InsideColorFill" data-item-index="4" data-renderer-id="0" transform="translate(518, 194)"><g id="1_mdlf758ng3ya-stroke" fill="none" stroke-linecap="round" stroke-linejoin="round" stroke-miterlimit="4" stroke="#A8DD38" stroke-width="2"><g><path d="M 16 10.857142L 28 10.857142C 28 10.857142 33.142857 10.857142 33.142857 16L 33.142857 28C 33.142857 28 33.142857 33.142857 28 33.142857L 16 33.142857C 16 33.142857 10.857142 33.142857 10.857142 28L 10.857142 16C 10.857142 16 10.857142 10.857142 16 10.857142M 16.857143 23.714287L 20.371429 26.525715C 20.562565 26.683115 20.814421 26.746078 21.057142 26.697144C 21.301985 26.651215 21.514732 26.50104 21.639999 26.285715L 27.142857 16.857143"></path></g></g></g><g id="g-root-doub_qtexbl8ng361-stroke" data-item-order="1000000000" data-item-id="doub_qtexbl8ng361" data-item-class="Icon Stroke Indexed InsideFill InsideColorFill" data-item-index="3" data-renderer-id="0" transform="translate(305, 227)"><g id="doub_qtexbl8ng361-stroke" fill="none" stroke-linecap="round" stroke-linejoin="round" stroke-miterlimit="4" stroke="#1AC6FF" stroke-width="2"><g><path d="M 36.785713 31.42857C 36.785713 32.612038 35.826324 33.571426 34.642857 33.571426L 20.714285 33.571426C 19.530819 33.571426 18.571428 32.612038 18.571428 31.42857L 18.571428 13.214286C 18.571428 12.030818 19.530819 11.071428 20.714285 11.071428L 30.357141 11.071428L 36.785713 17.5ZM 30.357141 38.92857L 15.357142 38.92857C 14.173676 38.92857 13.214286 37.969181 13.214286 36.785713L 13.214286 17.5"></path></g></g></g><g id="g-root-tx_ensurefi_14300fl8n7lzh-stroke" data-item-order="1000000000" data-item-id="tx_ensurefi_14300fl8n7lzh" data-item-class="Label Stroke Indexed" data-item-index="3" data-renderer-id="0" transform="translate(98, 266)"></g><g id="g-root-tx_addmuone_zn6ib58n7mrt-stroke" data-item-order="1000000000" data-item-id="tx_addmuone_zn6ib58n7mrt" data-item-class="Label Stroke Indexed" data-item-index="2" data-renderer-id="0" transform="translate(626, 254)"></g><g id="g-root-fran_qtexbl8ng360-stroke" data-item-order="1000000000" data-item-id="fran_qtexbl8ng360" data-item-class="Icon Stroke Indexed InsideFill InsideColorFill" data-item-index="2" data-renderer-id="0" transform="translate(542, 272)"><g id="fran_qtexbl8ng360-stroke" fill="none" stroke-linecap="round" stroke-linejoin="round" stroke-miterlimit="4" stroke="#44E095" stroke-width="2"><g><path d="M 12.25 10.75L 43.75 10.75C 43.75 10.75 45.25 10.75 45.25 12.25L 45.25 43.75C 45.25 43.75 45.25 45.25 43.75 45.25L 12.25 45.25C 12.25 45.25 10.75 45.25 10.75 43.75L 10.75 12.25C 10.75 12.25 10.75 10.75 12.25 10.75M 20.5 38.5L 35.5 38.5M 22 34.75L 22 21.25L 28.75 21.25M 22.0945 27.439001L 27.625 27.439001M 31.500999 34.751499L 31.500999 29.752001C 31.501562 28.71571 32.141273 27.787148 33.109364 27.417418C 34.077457 27.047686 35.173286 27.31341 35.864502 28.085503M 31.500999 29.752001L 31.500999 27.25"></path></g></g></g><g id="g-root-tx_implemen_14300fl8n7lzg-stroke" data-item-order="1000000000" data-item-id="tx_implemen_14300fl8n7lzg" data-item-class="Label Stroke Indexed" data-item-index="2" data-renderer-id="0" transform="translate(626, 314)"></g><g id="g-root-tx_implemen_zn6ib58n7mrs-stroke" data-item-order="1000000000" data-item-id="tx_implemen_zn6ib58n7mrs" data-item-class="Label Stroke Indexed Indexed_1" data-item-index="1" data-renderer-id="0" transform="translate(74, 338)"></g><g id="g-root-tele_qtexbl8ng35z-stroke" data-item-order="1000000000" data-item-id="tele_qtexbl8ng35z" data-item-class="Icon Stroke Indexed Indexed_1 InsideFill InsideColorFill" data-item-index="1" data-renderer-id="0" transform="translate(234, 374)"><g id="tele_qtexbl8ng35z-stroke" fill="none" stroke-linecap="round" stroke-linejoin="round" stroke-miterlimit="4" stroke="#4F92FF" stroke-width="2"><g><path d="M 23.714287 37.428574L 13.428572 47.714287M 20.285715 54.57143L 30.571428 44.285713M 22 35.714287L 32.285713 46L 56.285713 25.428572L 42.57143 11.714286L 22 35.714287ZM 11.714286 46L 22 56.285713"></path></g></g></g><g id="g-root-tx_adaptexi_1cy0jld8n7ocj-stroke" data-item-order="1000000000" data-item-id="tx_adaptexi_1cy0jld8n7ocj" data-item-class="Label Stroke Indexed Indexed_1" data-item-index="1" data-renderer-id="0" transform="translate(2, 422)"></g></g></g></svg>