<?xml version="1.0" encoding="utf-8" standalone="yes"?>
<!DOCTYPE svg PUBLIC "-//W3C//DTD SVG 1.1//EN" "http://www.w3.org/Graphics/SVG/1.1/DTD/svg11.dtd">
<svg width="505" height="268" viewBox="0 0 505 268" style="fill:none;stroke:none;fill-rule:evenodd;clip-rule:evenodd;stroke-linecap:round;stroke-linejoin:round;stroke-miterlimit:1.5;" version="1.1" xmlns="http://www.w3.org/2000/svg" xmlns:xlink="http://www.w3.org/1999/xlink"><style id="fontImports">@import url("https://fonts.googleapis.com/css2?family=Roboto:wght@400;700&amp;display=block");</style><g id="items" style="isolation: isolate"><g id="blend" style="mix-blend-mode:screen"><g id="g-root--1.line_sy_1q7l6xt79jh8o-fill" data-item-order="999997125" data-item-id="-1.line_sy_1q7l6xt79jh8o" data-item-class="Part Stroke ColorStrokeGray" data-item-index="-1" data-renderer-id="0" transform="translate(414, 242)"></g><g id="g-root--1.vector_sy_1lrrotd79ji0x-fill" data-item-order="999997127" data-item-id="-1.vector_sy_1lrrotd79ji0x" data-item-class="Part Stroke ColorStrokeGray" data-item-index="-1" data-renderer-id="0" transform="translate(3, 241.99609375)"></g><g id="g-root-3.cu-smallCircle_sy_1lrrotd79ji10-fill" data-item-order="999997129" data-item-id="3.cu-smallCircle_sy_1lrrotd79ji10" data-item-class="Part Indexed Stroke ColorStrokeGray" data-item-index="3" data-renderer-id="0" transform="translate(408, 239)"></g><g id="g-root-2.cu-smallCircle_sy_1lrrotd79ji0z-fill" data-item-order="999997131" data-item-id="2.cu-smallCircle_sy_1lrrotd79ji0z" data-item-class="Part Indexed Stroke ColorStrokeGray" data-item-index="2" data-renderer-id="0" transform="translate(240, 239)"></g><g id="g-root-1.cu-smallCircle_sy_1lrrotd79ji0y-fill" data-item-order="999997133" data-item-id="1.cu-smallCircle_sy_1lrrotd79ji0y" data-item-class="Part Indexed Indexed_1 Stroke ColorStrokeGray" data-item-index="1" data-renderer-id="0" transform="translate(72, 239)"></g><g id="g-root-tx_waveform_v5h55t79ji14-fill" data-item-order="1000000000" data-item-id="tx_waveform_v5h55t79ji14" data-item-class="Label Stroke Title ColorStrokeGray" data-item-index="none" data-renderer-id="0" transform="translate(105, 2)"><g id="tx_waveform_v5h55t79ji14-fill" stroke="none" fill="#A3A3A3"><g><text style="font: 20px Roboto, sans-serif; white-space: pre;"><tspan x="13.47" y="34" dominant-baseline="ideographic">Waveform Calibration Process</tspan></text></g></g></g><g id="g-root-tx_lowlevel_zlana979jh8v-fill" data-item-order="1000000000" data-item-id="tx_lowlevel_zlana979jh8v" data-item-class="Label Stroke Indexed Indexed_1 ColorStrokeGray" data-item-index="1" data-renderer-id="0" transform="translate(21, 122)"><g id="tx_lowlevel_zlana979jh8v-fill" stroke="none" fill="#A3A3A3"><g><text style="font: 20px Roboto, sans-serif; white-space: pre;"><tspan x="18.78" y="34" dominant-baseline="ideographic">Low-Level </tspan><tspan x="15.3" y="58" dominant-baseline="ideographic">Calibration</tspan></text></g></g></g><g id="g-root-tx_highleve_18gb6g179jjly-fill" data-item-order="1000000000" data-item-id="tx_highleve_18gb6g179jjly" data-item-class="Label Stroke Indexed ColorStrokeGray" data-item-index="2" data-renderer-id="0" transform="translate(189, 122)"><g id="tx_highleve_18gb6g179jjly-fill" stroke="none" fill="#A3A3A3"><g><text style="font: 20px Roboto, sans-serif; white-space: pre;"><tspan x="15.67" y="34" dominant-baseline="ideographic">High-Level </tspan><tspan x="14.27" y="58" dominant-baseline="ideographic">Calibration</tspan></text></g></g></g><g id="g-root-tx_modifyex_1lrrotd79ji11-fill" data-item-order="1000000000" data-item-id="tx_modifyex_1lrrotd79ji11" data-item-class="Label Stroke Indexed ColorStrokeGray" data-item-index="3" data-renderer-id="0" transform="translate(339, 122)"><g id="tx_modifyex_1lrrotd79ji11-fill" stroke="none" fill="#A3A3A3"><g><text style="font: 20px Roboto, sans-serif; white-space: pre;"><tspan x="12.38" y="34" dominant-baseline="ideographic">Modify Existing </tspan><tspan x="38.96" y="58" dominant-baseline="ideographic">Resource</tspan></text></g></g></g><g id="g-root-2_mcc4f5796wi1-fill" data-item-order="1000000000" data-item-id="2_mcc4f5796wi1" data-item-class="Icon Stroke Indexed Indexed_1" data-item-index="1" data-renderer-id="0" transform="translate(51, 182)"></g><g id="g-root-1_v7z4o1796vpc-fill" data-item-order="1000000000" data-item-id="1_v7z4o1796vpc" data-item-class="Icon Stroke Indexed" data-item-index="2" data-renderer-id="0" transform="translate(219, 182)"></g><g id="g-root-uplo_18lb2ap795eyx-fill" data-item-order="1000000000" data-item-id="uplo_18lb2ap795eyx" data-item-class="Icon Stroke Indexed" data-item-index="3" data-renderer-id="0" transform="translate(387, 182)"></g><g id="g-root--1.line_sy_1q7l6xt79jh8o-stroke" data-item-order="999997125" data-item-id="-1.line_sy_1q7l6xt79jh8o" data-item-class="Part Stroke ColorStrokeGray" data-item-index="-1" data-renderer-id="0" transform="translate(414, 242)"><g id="-1.line_sy_1q7l6xt79jh8o-stroke" fill="none" stroke-linecap="round" stroke-linejoin="round" stroke-miterlimit="4" stroke="#A3A3A3" stroke-width="2"><g><path d="M 77 10L 10 10"></path><path d="M 71 16.5L 77.5 10L 71 3.5" stroke-dasharray="none"></path></g></g></g><g id="g-root--1.vector_sy_1lrrotd79ji0x-stroke" data-item-order="999997127" data-item-id="-1.vector_sy_1lrrotd79ji0x" data-item-class="Part Stroke ColorStrokeGray" data-item-index="-1" data-renderer-id="0" transform="translate(3, 241.99609375)"><g id="-1.vector_sy_1lrrotd79ji0x-stroke" fill="none" stroke-linecap="round" stroke-linejoin="round" stroke-miterlimit="4" stroke="#A3A3A3" stroke-width="2"><g><path d="M 415 10.0039L 253 10.0039M 247 10.0039L 85 10.0039M 78.9976 10L 10 10"></path></g></g></g><g id="g-root-3.cu-smallCircle_sy_1lrrotd79ji10-stroke" data-item-order="999997129" data-item-id="3.cu-smallCircle_sy_1lrrotd79ji10" data-item-class="Part Indexed Stroke ColorStrokeGray" data-item-index="3" data-renderer-id="0" transform="translate(408, 239)"><g id="3.cu-smallCircle_sy_1lrrotd79ji10-stroke" fill="none" stroke-linecap="round" stroke-linejoin="round" stroke-miterlimit="4" stroke="#A3A3A3" stroke-width="2"><g><path d="M 16 13C 16 14.6569 14.6569 16 13 16C 11.3431 16 10 14.6569 10 13C 10 11.3431 11.3431 10 13 10C 14.6569 10 16 11.3431 16 13Z"></path></g></g></g><g id="g-root-2.cu-smallCircle_sy_1lrrotd79ji0z-stroke" data-item-order="999997131" data-item-id="2.cu-smallCircle_sy_1lrrotd79ji0z" data-item-class="Part Indexed Stroke ColorStrokeGray" data-item-index="2" data-renderer-id="0" transform="translate(240, 239)"><g id="2.cu-smallCircle_sy_1lrrotd79ji0z-stroke" fill="none" stroke-linecap="round" stroke-linejoin="round" stroke-miterlimit="4" stroke="#A3A3A3" stroke-width="2"><g><path d="M 16 13C 16 14.6569 14.6569 16 13 16C 11.3431 16 10 14.6569 10 13C 10 11.3431 11.3431 10 13 10C 14.6569 10 16 11.3431 16 13Z"></path></g></g></g><g id="g-root-1.cu-smallCircle_sy_1lrrotd79ji0y-stroke" data-item-order="999997133" data-item-id="1.cu-smallCircle_sy_1lrrotd79ji0y" data-item-class="Part Indexed Indexed_1 Stroke ColorStrokeGray" data-item-index="1" data-renderer-id="0" transform="translate(72, 239)"><g id="1.cu-smallCircle_sy_1lrrotd79ji0y-stroke" fill="none" stroke-linecap="round" stroke-linejoin="round" stroke-miterlimit="4" stroke="#A3A3A3" stroke-width="2"><g><path d="M 16 13C 16 14.6569 14.6569 16 13 16C 11.3431 16 10 14.6569 10 13C 10 11.3431 11.3431 10 13 10C 14.6569 10 16 11.3431 16 13Z"></path></g></g></g><g id="g-root-tx_waveform_v5h55t79ji14-stroke" data-item-order="1000000000" data-item-id="tx_waveform_v5h55t79ji14" data-item-class="Label Stroke Title ColorStrokeGray" data-item-index="none" data-renderer-id="0" transform="translate(105, 2)"></g><g id="g-root-tx_lowlevel_zlana979jh8v-stroke" data-item-order="1000000000" data-item-id="tx_lowlevel_zlana979jh8v" data-item-class="Label Stroke Indexed Indexed_1 ColorStrokeGray" data-item-index="1" data-renderer-id="0" transform="translate(21, 122)"></g><g id="g-root-tx_highleve_18gb6g179jjly-stroke" data-item-order="1000000000" data-item-id="tx_highleve_18gb6g179jjly" data-item-class="Label Stroke Indexed ColorStrokeGray" data-item-index="2" data-renderer-id="0" transform="translate(189, 122)"></g><g id="g-root-tx_modifyex_1lrrotd79ji11-stroke" data-item-order="1000000000" data-item-id="tx_modifyex_1lrrotd79ji11" data-item-class="Label Stroke Indexed ColorStrokeGray" data-item-index="3" data-renderer-id="0" transform="translate(339, 122)"></g><g id="g-root-2_mcc4f5796wi1-stroke" data-item-order="1000000000" data-item-id="2_mcc4f5796wi1" data-item-class="Icon Stroke Indexed Indexed_1" data-item-index="1" data-renderer-id="0" transform="translate(51, 182)"><g id="2_mcc4f5796wi1-stroke" fill="none" stroke-linecap="round" stroke-linejoin="round" stroke-miterlimit="4" stroke="#4F92FF" stroke-width="2"><g><path d="M 35 33L 55 33C 56.104568 33 57 32.104568 57 31L 57 13C 57 11.895431 56.104568 11 55 11L 31 11C 29.89543 11 29 11.895431 29 13L 29 29M 43 33L 43 39M 49.007999 39L 37.007999 39M 13 34L 29 34C 29 34 31 34 31 36L 31 51.5C 31 51.5 31 53.5 29 53.5L 13 53.5C 13 53.5 11 53.5 11 51.5L 11 36C 11 36 11 34 13 34M 14 53.5L 14 57M 28 53.5L 28 57M 11 43L 31 43M 16.25 47.5C 16.664213 47.5 17 47.835789 17 48.25M 15.5 48.25C 15.5 47.835789 15.835787 47.5 16.25 47.5M 16.25 49C 15.835787 49 15.5 48.664215 15.5 48.25M 17 48.25C 17 48.664215 16.664213 49 16.25 49M 25.75 47.5C 26.164213 47.5 26.5 47.835789 26.5 48.25M 25 48.25C 25 47.835789 25.335787 47.5 25.75 47.5M 25.75 49C 25.335787 49 25 48.664215 25 48.25M 26.5 48.25C 26.5 48.664215 26.164213 49 25.75 49"></path></g></g></g><g id="g-root-1_v7z4o1796vpc-stroke" data-item-order="1000000000" data-item-id="1_v7z4o1796vpc" data-item-class="Icon Stroke Indexed" data-item-index="2" data-renderer-id="0" transform="translate(219, 182)"><g id="1_v7z4o1796vpc-stroke" fill="none" stroke-linecap="round" stroke-linejoin="round" stroke-miterlimit="4" stroke="#44E095" stroke-width="2"><g><path d="M 30.01 11.274C 29.703846 11.094103 29.355095 10.999492 29 11L 13 11C 11.895431 11 11 11.895431 11 13L 11 55C 11 56.104568 11.895431 57 13 57L 29 57C 30.10457 57 31 56.104568 31 55L 31 39M 29 25C 29.000002 32.731987 35.268013 39 43 39C 50.731987 39 57 32.731987 57 25C 57 17.268013 50.731987 11.000001 43 11.000001C 35.268013 11.000001 29.000002 17.268013 29.000002 25ZM 41 20L 41 29C 41 30.656855 39.656853 32 38 32C 36.343147 32 35 30.656855 35 29L 35 20M 51 20L 51 23C 51.000004 26.245554 49.947334 29.403559 48.000004 32C 46.05267 29.403559 45 26.245554 45 23L 45 20M 15 51L 27 51M 15 47L 27 47M 15 43L 27 43M 15 39L 27 39M 15 35L 27 35M 15 31L 27 31"></path></g></g></g><g id="g-root-uplo_18lb2ap795eyx-stroke" data-item-order="1000000000" data-item-id="uplo_18lb2ap795eyx" data-item-class="Icon Stroke Indexed" data-item-index="3" data-renderer-id="0" transform="translate(387, 182)"><g id="uplo_18lb2ap795eyx-stroke" fill="none" stroke-linecap="round" stroke-linejoin="round" stroke-miterlimit="4" stroke="#A8DD38" stroke-width="2"><g><path d="M 29.228001 51L 13.228 51C 12.12343 51 11.228 50.104568 11.228 49L 11.228 17C 11.228 15.895431 12.12343 15 13.228 15L 41.228001 15C 42.332569 15 43.228001 15.895431 43.228001 17L 43.228001 27M 19.23 19.001999L 19.23 11.002M 27.23 19.001999L 27.23 11.002M 35.23 19.001999L 35.23 11.002M 33.23 45.001999C 33.230003 51.629417 38.602585 57.002003 45.23 57.002003C 51.857418 57.002003 57.23 51.629417 57.23 45.002003C 57.23 38.374584 51.857418 33.001999 45.23 33.001999C 38.602585 33.001999 33.230003 38.374584 33.230003 45.002003ZM 45.23 51.001999L 45.23 39.001999M 45.23 39.001999L 40.73 43.501999M 45.23 39.001999L 49.73 43.501999"></path></g></g></g></g></g></svg>